<svg width="25" height="24" viewBox="0 0 25 24" fill="none" xmlns="http://www.w3.org/2000/svg">
<path d="M4.25 10C4.1837 10 4.12011 9.97369 4.07322 9.9268C4.02634 9.87992 4 9.81633 4 9.75003V3.75153C4 3.68522 4.02634 3.62163 4.07322 3.57475C4.12011 3.52786 4.1837 3.50153 4.25 3.50153H10.25C10.3163 3.50153 10.3799 3.52786 10.4268 3.57475C10.4737 3.62163 10.5 3.68522 10.5 3.75153V9.75003C10.5 9.81633 10.4737 9.87992 10.4268 9.9268C10.3799 9.97369 10.3163 10 10.25 10H4.25ZM14.75 10C14.6837 10 14.6201 9.97369 14.5732 9.9268C14.5263 9.87992 14.5 9.81633 14.5 9.75003V3.75153C14.5 3.68522 14.5263 3.62163 14.5732 3.57475C14.6201 3.52787 14.6837 3.50153 14.75 3.50153H20.7485C20.8148 3.50153 20.8784 3.52787 20.9253 3.57475C20.9722 3.62163 20.9985 3.68522 20.9985 3.75153V9.75003C20.9985 9.81633 20.9722 9.87992 20.9253 9.9268C20.8784 9.97369 20.8148 10 20.7485 10H14.75ZM4.25 20.5C4.1837 20.5 4.12011 20.4737 4.07322 20.4268C4.02634 20.3799 4 20.3163 4 20.25V14.25C4 14.1837 4.02634 14.1201 4.07322 14.0732C4.12011 14.0264 4.1837 14 4.25 14H10.25C10.3163 14 10.3799 14.0264 10.4268 14.0732C10.4737 14.1201 10.5 14.1837 10.5 14.25V20.25C10.5 20.3163 10.4737 20.3799 10.4268 20.4268C10.3799 20.4737 10.3163 20.5 10.25 20.5H4.25ZM14.75 20.5C14.6837 20.5 14.6201 20.4737 14.5732 20.4268C14.5263 20.3799 14.5 20.3163 14.5 20.25V14.25C14.5 14.1837 14.5263 14.1201 14.5732 14.0732C14.6201 14.0264 14.6837 14 14.75 14H20.7485C20.8148 14 20.8784 14.0264 20.9253 14.0732C20.9722 14.1201 20.9985 14.1837 20.9985 14.25V20.25C20.9985 20.3163 20.9722 20.3799 20.9253 20.4268C20.8784 20.4737 20.8148 20.5 20.7485 20.5H14.75Z" stroke="#6B6B6B"/>
</svg>
