<svg width="64" height="64" viewBox="0 0 64 64" fill="none" xmlns="http://www.w3.org/2000/svg">
<g id="2747643_bow_bowknot_decoration_icon (1) 1">
<g id="bow_2_">
<g id="Group">
<g id="bow_10_">
<g id="Group_2">
<g id="bow_x5F_element4_2_">
<path id="Vector" d="M52.4809 5.44201C52.2259 5.08401 51.7249 4.65601 50.7819 4.65601C47.0579 4.65601 38.4679 11.772 34.4619 16.356C34.7649 16.543 35.0089 16.789 35.1879 17.079C38.9639 12.771 47.3889 5.65601 50.7819 5.65601C51.3429 5.65601 51.5539 5.86401 51.6839 6.04501C51.8219 6.21701 51.8949 6.41401 51.9159 6.63401C52.0749 6.60501 52.2389 6.58401 52.4159 6.58401C52.5959 6.58401 52.7619 6.60501 52.9219 6.63401C52.8969 6.10101 52.6929 5.70401 52.4809 5.44201Z" fill="#464646"/>
</g>
<path id="Vector_2" d="M52.3521 5.39403C52.1571 5.23303 51.8691 5.24403 51.6871 5.42003C51.5031 5.59603 51.4821 5.88103 51.6361 6.08303C51.8121 6.31203 51.7731 6.68703 51.5211 7.19803C49.9041 10.471 40.7481 16.594 35.2681 17.87C35.4641 18.145 35.6011 18.459 35.6751 18.792C41.5101 17.328 50.7031 11.113 52.4181 7.64103C52.5191 7.43903 52.5921 7.25003 52.6441 7.07503C56.6841 11.689 58.6411 22.796 57.8471 26.876C56.4551 29.27 51.3761 31 45.7111 31C43.0511 31 40.5661 30.616 38.3541 29.907C38.3351 30.001 38.3001 30.088 38.2711 30.178C38.3211 30.425 38.3371 30.678 38.3211 30.931C40.5641 31.619 43.0531 32 45.7111 32C51.8671 32 57.2321 30.064 58.7591 27.293C58.7821 27.249 58.8001 27.202 58.8101 27.153C59.7691 22.533 57.3841 9.54503 52.3521 5.39403Z" fill="#464646"/>
</g>
</g>
<g id="bow_9_">
<g id="Group_3">
<g id="bow_x5F_element4_1_">
<path id="Vector_3" d="M12.3066 7.49401C12.0616 6.88801 12.0866 6.41401 12.4026 6.02001C12.5136 5.86401 12.7256 5.65601 13.2866 5.65601C16.6696 5.65601 25.0636 12.735 28.8596 17.049C29.0106 16.738 29.2196 16.458 29.4966 16.24C25.4506 11.653 16.9796 4.65601 13.2866 4.65601C12.3426 4.65601 11.8416 5.08401 11.6056 5.41801C11.2356 5.87701 10.8956 6.67401 11.3796 7.86901C12.9736 11.806 22.4286 17.419 28.2536 19.307C28.2476 18.971 28.2956 18.634 28.4056 18.32C22.6426 16.451 13.6916 10.914 12.3066 7.49401Z" fill="#464646"/>
</g>
<path id="Vector_4" d="M25.5888 29.958C23.4068 30.636 20.9648 31 18.3578 31C12.6928 31 7.6128 29.27 6.2218 26.875C5.4288 22.795 7.3858 11.687 11.4248 7.07403C11.4658 7.21403 11.5328 7.36703 11.6038 7.52303C11.5298 6.74203 11.7738 5.93303 12.3368 5.39003C12.1538 5.24803 11.8988 5.24404 11.7158 5.39304C6.6848 9.54304 4.2998 22.533 5.2578 27.153C5.2678 27.202 5.2858 27.249 5.3098 27.293C6.8358 30.064 12.2008 32 18.3568 32C18.3558 32 18.3578 32 18.3568 32C21.0268 32 23.5458 31.637 25.8018 30.947C25.6718 30.637 25.5988 30.301 25.5888 29.958Z" fill="#464646"/>
</g>
</g>
<g id="Group_4">
<g id="Group_5">
<path id="Vector_5" d="M44.0687 31.447C48.9787 35.288 52.8667 41.811 54.6517 49.885L47.2027 47.777L42.5387 55.926C41.1667 47.113 37.0437 37.034 33.5837 32.236C33.1917 32.277 32.7997 32.287 32.4077 32.298C35.9677 36.864 40.6277 48.314 41.7497 57.506L41.9317 59L47.6837 48.953L55.9637 51.296L55.8027 50.493C54.1697 42.385 50.4697 35.706 45.6997 31.499C45.1587 31.499 44.6147 31.48 44.0687 31.447Z" fill="#464646"/>
<path id="Vector_6" d="M21.5486 55.927L16.8836 47.778L9.43556 49.886C11.2206 41.811 15.1106 35.286 20.0206 31.447C19.4736 31.48 18.9286 31.499 18.3866 31.5C13.6166 35.707 9.91656 42.386 8.28456 50.494L8.12256 51.297L16.4036 48.954L22.1556 59L22.3376 57.506C23.4596 48.316 28.1166 36.872 31.6766 32.303C31.2846 32.294 30.8926 32.28 30.5016 32.24C27.0416 37.042 22.9206 47.116 21.5486 55.927Z" fill="#464646"/>
</g>
<g id="Group_6">
<path id="Vector_7" d="M31.9994 32.819C29.8024 32.819 27.5774 32.349 25.3864 31.423L25.0464 31.28L25.0834 30.913C25.5004 26.786 26.6724 22.093 28.7714 16.145L28.8524 15.916L29.0834 15.838C31.0154 15.187 32.9834 15.187 34.9154 15.838L35.1454 15.916L35.2264 16.145C37.3254 22.092 38.4974 26.785 38.9144 30.913L38.9514 31.28L38.6114 31.423C36.4214 32.35 34.1964 32.819 31.9994 32.819ZM26.1174 30.645C30.0314 32.206 33.9704 32.205 37.8814 30.645C37.4464 26.741 36.3244 22.295 34.3654 16.713C32.7914 16.231 31.2084 16.231 29.6324 16.713C27.6744 22.295 26.5514 26.741 26.1174 30.645Z" fill="#464646"/>
</g>
</g>
</g>
</g>
</g>
</svg>
