<svg width="16" height="8" viewBox="0 0 16 8" fill="none" xmlns="http://www.w3.org/2000/svg">
<path d="M1.33333 4.62598C1.79357 4.62598 2.16667 4.34615 2.16667 4.00098C2.16667 3.6558 1.79357 3.37598 1.33333 3.37598C0.873096 3.37598 0.5 3.6558 0.5 4.00098C0.5 4.34615 0.873096 4.62598 1.33333 4.62598Z" fill="white"/>
<path d="M14.7163 3.37598H4.61634C4.18372 3.37598 3.83301 3.63901 3.83301 3.96348V4.03848C3.83301 4.36294 4.18372 4.62598 4.61634 4.62598H14.7163C15.149 4.62598 15.4997 4.36294 15.4997 4.03848V3.96348C15.4997 3.63901 15.149 3.37598 14.7163 3.37598Z" fill="white"/>
<path d="M14.7167 6.50098H1.28333C0.85071 6.50098 0.5 6.76401 0.5 7.08848V7.16348C0.5 7.48794 0.85071 7.75098 1.28333 7.75098H14.7167C15.1493 7.75098 15.5 7.48794 15.5 7.16348V7.08848C15.5 6.76401 15.1493 6.50098 14.7167 6.50098Z" fill="white"/>
<path d="M14.7167 0.250977H1.28333C0.85071 0.250977 0.5 0.514009 0.5 0.838477V0.913477C0.5 1.23794 0.85071 1.50098 1.28333 1.50098H14.7167C15.1493 1.50098 15.5 1.23794 15.5 0.913477V0.838477C15.5 0.514009 15.1493 0.250977 14.7167 0.250977Z" fill="white"/>
</svg>
