<svg width="32" height="33" viewBox="0 0 32 33" fill="none" xmlns="http://www.w3.org/2000/svg">
<g id="1250325_calendar_date_milestones_schedule_icon 1">
<g id="Group">
<path id="Vector (Stroke)" fill-rule="evenodd" clip-rule="evenodd" d="M20 6.08545C20 5.80931 20.1478 5.58545 20.3302 5.58545H26.6698C26.8522 5.58545 27 5.80931 27 6.08545C27 6.36159 26.8522 6.58545 26.6698 6.58545H20.3302C20.1478 6.58545 20 6.36159 20 6.08545Z" fill="#6B6B6B"/>
<path id="Vector (Stroke)_2" fill-rule="evenodd" clip-rule="evenodd" d="M13 6.08545C13 5.80931 13.1484 5.58545 13.3314 5.58545H19.6686C19.8516 5.58545 20 5.80931 20 6.08545C20 6.36159 19.8516 6.58545 19.6686 6.58545H13.3314C13.1484 6.58545 13 6.36159 13 6.08545Z" fill="#6B6B6B"/>
<path id="Vector (Stroke)_3" fill-rule="evenodd" clip-rule="evenodd" d="M5 6.08545C5 5.80931 5.14881 5.58545 5.33238 5.58545H11.6676C11.8512 5.58545 12 5.80931 12 6.08545C12 6.36159 11.8512 6.58545 11.6676 6.58545H5.33238C5.14881 6.58545 5 6.36159 5 6.08545Z" fill="#6B6B6B"/>
<path id="Vector (Stroke)_4" fill-rule="evenodd" clip-rule="evenodd" d="M1.63265 6.22204H4.36571C4.54042 6.22204 4.68204 6.07953 4.68204 5.90374C4.68204 5.72795 4.54042 5.58545 4.36571 5.58545H1.54408C1.24285 5.58545 1 5.82981 1 6.13292V28.038C1 28.3411 1.24285 28.5854 1.54408 28.5854H31.4559C31.7571 28.5854 32 28.3411 32 28.038V6.13292C32 5.82981 31.7572 5.58545 31.4559 5.58545H28.552C28.3773 5.58545 28.2357 5.72795 28.2357 5.90374C28.2357 6.07953 28.3773 6.22204 28.552 6.22204H31.3673V27.9489H1.63265V6.22204Z" fill="#6B6B6B"/>
<path id="Vector (Stroke)_5" fill-rule="evenodd" clip-rule="evenodd" d="M1 11.0854C1 10.8093 1.14162 10.5854 1.31633 10.5854H31.6837C31.8584 10.5854 32 10.8093 32 11.0854C32 11.3616 31.8584 11.5854 31.6837 11.5854H1.31633C1.14162 11.5854 1 11.3616 1 11.0854Z" fill="#6B6B6B"/>
<g id="Group_2">
<g id="Group_3">
<path id="Vector (Stroke)_6" fill-rule="evenodd" clip-rule="evenodd" d="M3.6383 14.2237V15.9472H5.3617V14.2237H3.6383ZM3 14.1535C3 13.8486 3.2461 13.5854 3.56809 13.5854H5.43192C5.73687 13.5854 6 13.8315 6 14.1535V16.0174C6 16.3277 5.74222 16.5854 5.43192 16.5854H3.56809C3.26313 16.5854 3 16.3394 3 16.0174V14.1535Z" fill="#6B6B6B"/>
<path id="Vector (Stroke)_7" fill-rule="evenodd" clip-rule="evenodd" d="M8.6383 14.2237V15.9472H10.3617V14.2237H8.6383ZM8 14.1535C8 13.8486 8.2461 13.5854 8.56809 13.5854H10.4319C10.7369 13.5854 11 13.8315 11 14.1535V16.0174C11 16.3223 10.7539 16.5854 10.4319 16.5854H8.56809C8.26313 16.5854 8 16.3394 8 16.0174V14.1535Z" fill="#6B6B6B"/>
<path id="Vector (Stroke)_8" fill-rule="evenodd" clip-rule="evenodd" d="M12.6383 14.2237V15.9472H14.3617V14.2237H12.6383ZM12 14.1535C12 13.8486 12.2461 13.5854 12.5681 13.5854H14.4319C14.7369 13.5854 15 13.8315 15 14.1535V16.0174C15 16.3223 14.7539 16.5854 14.4319 16.5854H12.5681C12.2631 16.5854 12 16.3394 12 16.0174V14.1535Z" fill="#6B6B6B"/>
<path id="Vector (Stroke)_9" fill-rule="evenodd" clip-rule="evenodd" d="M17.6383 14.2237V15.9472H19.3617V14.2237H17.6383ZM17 14.1535C17 13.8486 17.2461 13.5854 17.5681 13.5854H19.4319C19.7369 13.5854 20 13.8315 20 14.1535V16.0174C20 16.3277 19.7422 16.5854 19.4319 16.5854H17.5681C17.2631 16.5854 17 16.3394 17 16.0174V14.1535Z" fill="#6B6B6B"/>
<path id="Vector (Stroke)_10" fill-rule="evenodd" clip-rule="evenodd" d="M21.6383 14.2237V15.9472H23.3617V14.2237H21.6383ZM21 14.1535C21 13.8486 21.2461 13.5854 21.5681 13.5854H23.4319C23.7369 13.5854 24 13.8315 24 14.1535V16.0174C24 16.3277 23.7422 16.5854 23.4319 16.5854H21.5681C21.2631 16.5854 21 16.3394 21 16.0174V14.1535Z" fill="#6B6B6B"/>
<path id="Vector (Stroke)_11" fill-rule="evenodd" clip-rule="evenodd" d="M26.6383 14.2237V15.9472H28.3617V14.2237H26.6383ZM26 14.1535C26 13.8486 26.2461 13.5854 26.5681 13.5854H28.4319C28.7369 13.5854 29 13.8315 29 14.1535V16.0174C29 16.3223 28.7539 16.5854 28.4319 16.5854H26.5681C26.2631 16.5854 26 16.3394 26 16.0174V14.1535Z" fill="#6B6B6B"/>
</g>
<g id="Group_4">
<path id="Vector (Stroke)_12" fill-rule="evenodd" clip-rule="evenodd" d="M3.6383 18.2237V19.9472H5.3617V18.2237H3.6383ZM3 18.1535C3 17.8486 3.2461 17.5854 3.56809 17.5854H5.43192C5.73687 17.5854 6 17.8315 6 18.1535V20.0174C6 20.3393 5.73687 20.5854 5.43192 20.5854H3.56809C3.26313 20.5854 3 20.3393 3 20.0174V18.1535Z" fill="#6B6B6B"/>
<path id="Vector (Stroke)_13" fill-rule="evenodd" clip-rule="evenodd" d="M8.6383 18.2237V19.9472H10.3617V18.2237H8.6383ZM8 18.1535C8 17.8486 8.2461 17.5854 8.56809 17.5854H10.4319C10.7369 17.5854 11 17.8315 11 18.1535V20.0174C11 20.334 10.7486 20.5854 10.4319 20.5854H8.56809C8.26313 20.5854 8 20.3393 8 20.0174V18.1535Z" fill="#6B6B6B"/>
<path id="Vector (Stroke)_14" fill-rule="evenodd" clip-rule="evenodd" d="M12.6383 18.2237V19.9472H14.3617V18.2237H12.6383ZM12 18.1535C12 17.8486 12.2461 17.5854 12.5681 17.5854H14.4319C14.7369 17.5854 15 17.8315 15 18.1535V20.0174C15 20.334 14.7486 20.5854 14.4319 20.5854H12.5681C12.2631 20.5854 12 20.3393 12 20.0174V18.1535Z" fill="#6B6B6B"/>
<path id="Vector (Stroke)_15" fill-rule="evenodd" clip-rule="evenodd" d="M17.6383 18.2237V19.9472H19.3617V18.2237H17.6383ZM17 18.1535C17 17.8486 17.2461 17.5854 17.5681 17.5854H19.4319C19.7369 17.5854 20 17.8315 20 18.1535V20.0174C20 20.3393 19.7369 20.5854 19.4319 20.5854H17.5681C17.2631 20.5854 17 20.3394 17 20.0174V18.1535Z" fill="#6B6B6B"/>
<path id="Vector (Stroke)_16" fill-rule="evenodd" clip-rule="evenodd" d="M21.6383 18.2237V19.9472H23.3617V18.2237H21.6383ZM21 18.1535C21 17.8486 21.2461 17.5854 21.5681 17.5854H23.4319C23.7369 17.5854 24 17.8315 24 18.1535V20.0174C24 20.3393 23.7369 20.5854 23.4319 20.5854H21.5681C21.2631 20.5854 21 20.3394 21 20.0174V18.1535Z" fill="#6B6B6B"/>
<path id="Vector (Stroke)_17" fill-rule="evenodd" clip-rule="evenodd" d="M26.6383 18.2237V19.9472H28.3617V18.2237H26.6383ZM26 18.1535C26 17.8486 26.2461 17.5854 26.5681 17.5854H28.4319C28.7369 17.5854 29 17.8315 29 18.1535V20.0174C29 20.334 28.7486 20.5854 28.4319 20.5854H26.5681C26.2631 20.5854 26 20.3394 26 20.0174V18.1535Z" fill="#6B6B6B"/>
</g>
<g id="Group_5">
<path id="Vector (Stroke)_18" fill-rule="evenodd" clip-rule="evenodd" d="M3.6383 23.2237V24.9472H5.3617V23.2237H3.6383ZM3 23.1535C3 22.8486 3.2461 22.5854 3.56809 22.5854H5.43192C5.73687 22.5854 6 22.8315 6 23.1535V25.0174C6 25.3394 5.73687 25.5854 5.43192 25.5854H3.56809C3.26313 25.5854 3 25.3394 3 25.0174V23.1535Z" fill="#6B6B6B"/>
<path id="Vector (Stroke)_19" fill-rule="evenodd" clip-rule="evenodd" d="M8.6383 23.2237V24.9472H10.3617V23.2237H8.6383ZM8 23.1535C8 22.8486 8.2461 22.5854 8.56809 22.5854H10.4319C10.7369 22.5854 11 22.8315 11 23.1535V25.0174C11 25.3341 10.7486 25.5854 10.4319 25.5854H8.56809C8.26313 25.5854 8 25.3394 8 25.0174V23.1535Z" fill="#6B6B6B"/>
<path id="Vector (Stroke)_20" fill-rule="evenodd" clip-rule="evenodd" d="M12.6383 23.2237V24.9472H14.3617V23.2237H12.6383ZM12 23.1535C12 22.8486 12.2461 22.5854 12.5681 22.5854H14.4319C14.7369 22.5854 15 22.8315 15 23.1535V25.0174C15 25.3341 14.7486 25.5854 14.4319 25.5854H12.5681C12.2631 25.5854 12 25.3394 12 25.0174V23.1535Z" fill="#6B6B6B"/>
<path id="Vector (Stroke)_21" fill-rule="evenodd" clip-rule="evenodd" d="M17.6383 23.2237V24.9472H19.3617V23.2237H17.6383ZM17 23.1535C17 22.8486 17.2461 22.5854 17.5681 22.5854H19.4319C19.7369 22.5854 20 22.8315 20 23.1535V25.0174C20 25.3394 19.7369 25.5854 19.4319 25.5854H17.5681C17.2631 25.5854 17 25.3394 17 25.0174V23.1535Z" fill="#6B6B6B"/>
</g>
</g>
<g id="Group_6">
<path id="Vector (Stroke)_22" fill-rule="evenodd" clip-rule="evenodd" d="M4.66007 5.20083V7.97006H5.33993V5.20083H4.66007ZM4 5.10237C4 4.81552 4.24677 4.58545 4.55446 4.58545H5.44554C5.75323 4.58545 6 4.81552 6 5.10237V8.06853C6 8.07422 5.99983 8.07991 5.99949 8.08559C5.98412 8.34354 5.75608 8.58545 5.43894 8.58545H4.55446C4.24677 8.58545 4 8.35538 4 8.06853V5.10237Z" fill="#6B6B6B"/>
<path id="Vector (Stroke)_23" fill-rule="evenodd" clip-rule="evenodd" d="M11.6601 5.20083V7.97006H12.3399V5.20083H11.6601ZM11 5.10237C11 4.81551 11.2468 4.58545 11.5545 4.58545H12.4455C12.7532 4.58545 13 4.81552 13 5.10237V8.06853C13 8.34334 12.7595 8.58545 12.4455 8.58545H11.5545C11.2468 8.58545 11 8.35538 11 8.06853V5.10237Z" fill="#6B6B6B"/>
<path id="Vector (Stroke)_24" fill-rule="evenodd" clip-rule="evenodd" d="M19.6601 5.20083V7.97006H20.3399V5.20083H19.6601ZM19 5.10237C19 4.81552 19.2468 4.58545 19.5545 4.58545H20.4455C20.7532 4.58545 21 4.81552 21 5.10237V8.06853C21 8.34334 20.7595 8.58545 20.4455 8.58545H19.5545C19.2468 8.58545 19 8.35538 19 8.06853V5.10237Z" fill="#6B6B6B"/>
<path id="Vector (Stroke)_25" fill-rule="evenodd" clip-rule="evenodd" d="M26.6601 5.20083V7.97006H27.3399V5.20083H26.6601ZM26 5.10237C26 4.81551 26.2468 4.58545 26.5545 4.58545H27.4455C27.7532 4.58545 28 4.81552 28 5.10237V8.06853C28 8.34334 27.7595 8.58545 27.4455 8.58545H26.5545C26.2468 8.58545 26 8.35539 26 8.06853V5.10237Z" fill="#6B6B6B"/>
</g>
</g>
</g>
</svg>
