<svg width="31" height="30" viewBox="0 0 31 30" fill="none" xmlns="http://www.w3.org/2000/svg">
<g id="6827550_advertising_business_discount_marketing_offer_icon 1" clip-path="url(#clip0_464_683)">
<g id="Discount">
<path id="Vector" d="M29.8441 20.896L21.3924 3.72193C21.2189 3.36934 20.9391 3.08012 20.5924 2.89509C20.2457 2.71007 19.8497 2.63857 19.4602 2.69068L11.6508 3.75475C11.6361 3.75676 11.6238 3.76445 11.6096 3.76778C11.5948 3.76942 11.5802 3.7718 11.5656 3.7749L7.70186 5.06364L2.67307 1.04012C2.62498 1.00168 2.56978 0.973085 2.51064 0.955973C2.4515 0.938861 2.38957 0.933565 2.32838 0.940388C2.2048 0.954167 2.09176 1.01647 2.01412 1.1136C1.93648 1.21072 1.90061 1.33471 1.91439 1.45829C1.92817 1.58186 1.99047 1.69491 2.0876 1.77254L6.64254 5.41647L4.09169 6.26725C3.71738 6.38968 3.39149 6.62756 3.1608 6.94674C2.9301 7.26592 2.80647 7.64999 2.80765 8.04381V27.1876C2.80818 27.6847 3.00589 28.1613 3.35741 28.5128C3.70893 28.8643 4.18553 29.062 4.68265 29.0626H18.7451C19.1801 29.0652 19.6021 28.9145 19.937 28.637C20.272 28.3596 20.4985 27.973 20.5769 27.5452L28.9881 23.4083C29.4342 23.1881 29.7749 22.8 29.9353 22.3291C30.0958 21.8582 30.063 21.3428 29.8441 20.896ZM19.6826 27.1688C19.6802 27.1867 19.6787 27.2047 19.6783 27.2228C19.6725 27.4657 19.5714 27.6965 19.3968 27.8653C19.2221 28.0342 18.988 28.1275 18.7451 28.1251H4.68265C4.43409 28.1248 4.1958 28.0259 4.02005 27.8502C3.84429 27.6744 3.74543 27.4361 3.74515 27.1876V8.04381C3.74441 7.84725 3.80604 7.65552 3.92115 7.4962C4.03627 7.33687 4.19894 7.21815 4.38579 7.15712L7.51408 6.11359L10.0188 8.11745C9.90156 8.36396 9.84011 8.63332 9.8389 8.90631C9.8389 9.27715 9.94886 9.63966 10.1549 9.948C10.3609 10.2563 10.6538 10.4967 10.9964 10.6386C11.339 10.7805 11.716 10.8176 12.0797 10.7453C12.4434 10.6729 12.7775 10.4944 13.0397 10.2321C13.3019 9.96991 13.4805 9.63582 13.5529 9.2721C13.6252 8.90839 13.5881 8.53139 13.4462 8.18878C13.3043 7.84617 13.0639 7.55333 12.7556 7.3473C12.4472 7.14128 12.0847 7.03131 11.7139 7.03131C11.3185 7.03223 10.9336 7.15926 10.6154 7.39393L8.57336 5.76034L11.714 4.71278L19.0449 7.15811C19.2312 7.21944 19.3933 7.33821 19.5079 7.49737C19.6225 7.65654 19.6837 7.84792 19.6828 8.04404L19.6826 27.1688ZM12.0481 8.54012L11.4047 8.02539C11.5038 7.98901 11.6085 7.96988 11.7141 7.96881C11.9097 7.96664 12.1013 8.02505 12.2624 8.13604C12.4236 8.24703 12.5464 8.40516 12.6141 8.58873C12.6818 8.77231 12.6911 8.97234 12.6406 9.16139C12.5902 9.35043 12.4824 9.51923 12.3322 9.64463C12.182 9.77003 11.9967 9.84589 11.8017 9.8618C11.6067 9.87771 11.4115 9.83289 11.243 9.73349C11.0744 9.63409 10.9408 9.48498 10.8603 9.30661C10.7799 9.12824 10.7566 8.92935 10.7937 8.73723L11.4628 9.27254C11.5599 9.35018 11.6839 9.38606 11.8075 9.37228C11.9311 9.3585 12.0441 9.29619 12.1217 9.19907C12.1994 9.10194 12.2352 8.97795 12.2215 8.85438C12.2077 8.7308 12.1452 8.61776 12.0481 8.54012ZM28.5747 22.5669H28.5741L20.6201 26.479V8.04381C20.6215 7.65045 20.4982 7.26677 20.268 6.94778C20.0379 6.62879 19.7126 6.39087 19.3389 6.26814L13.7727 4.41151L19.5852 3.61961C19.7799 3.59357 19.9778 3.62933 20.1511 3.72185C20.3243 3.81436 20.4642 3.95896 20.5508 4.13523L29.0024 21.3092C29.112 21.5327 29.1286 21.7906 29.0484 22.0264C28.9683 22.2622 28.7979 22.4565 28.5747 22.5669Z" fill="#454545"/>
<path id="Vector_2" d="M8.79544 18.5367C9.31255 18.5362 9.81348 18.3564 10.2129 18.028C10.6123 17.6996 10.8856 17.2428 10.986 16.7356C11.0865 16.2283 11.008 15.7019 10.7639 15.2461C10.5198 14.7902 10.1252 14.4331 9.64728 14.2355C9.1694 14.0379 8.63781 14.0122 8.14306 14.1626C7.64831 14.313 7.22101 14.6303 6.93394 15.0604C6.64688 15.4905 6.51781 16.0068 6.56873 16.5214C6.61964 17.036 6.84739 17.517 7.21318 17.8825C7.42083 18.0904 7.66751 18.2552 7.93904 18.3675C8.21058 18.4797 8.50162 18.5372 8.79544 18.5367ZM7.87604 15.3809C8.08876 15.168 8.36872 15.0354 8.66822 15.0058C8.96771 14.9762 9.26821 15.0514 9.5185 15.2185C9.76879 15.3856 9.95339 15.6343 10.0408 15.9223C10.1283 16.2103 10.1132 16.5197 9.9981 16.7977C9.883 17.0758 9.67505 17.3054 9.40966 17.4473C9.14428 17.5892 8.83789 17.6348 8.54271 17.5761C8.24752 17.5175 7.9818 17.3583 7.79083 17.1257C7.59986 16.8931 7.49546 16.6015 7.49541 16.3005C7.49507 16.1297 7.52853 15.9605 7.59386 15.8027C7.65918 15.6448 7.75508 15.5015 7.87604 15.3809Z" fill="#454545"/>
<path id="Vector_3" d="M13.0504 20.5549C12.7375 20.8679 12.5244 21.2665 12.4381 21.7006C12.3518 22.1346 12.3961 22.5845 12.5655 22.9933C12.7349 23.4022 13.0216 23.7516 13.3896 23.9975C13.7576 24.2433 14.1901 24.3745 14.6327 24.3745C15.0752 24.3745 15.5078 24.2433 15.8758 23.9975C16.2437 23.7516 16.5305 23.4022 16.6999 22.9933C16.8692 22.5845 16.9135 22.1346 16.8272 21.7006C16.7409 21.2665 16.5278 20.8679 16.2149 20.5549C16.0082 20.3453 15.7619 20.1788 15.4902 20.0652C15.2186 19.9516 14.9271 19.8931 14.6327 19.8931C14.3382 19.8931 14.0467 19.9516 13.7751 20.0652C13.5035 20.1788 13.2571 20.3453 13.0504 20.5549ZM15.5523 23.0566C15.3395 23.2695 15.0596 23.402 14.7601 23.4316C14.4606 23.4612 14.1601 23.3861 13.9098 23.219C13.6595 23.0519 13.4749 22.8031 13.3875 22.5152C13.3 22.2272 13.3151 21.9178 13.4302 21.6397C13.5453 21.3616 13.7533 21.1321 14.0186 20.9901C14.284 20.8482 14.5904 20.8027 14.8856 20.8613C15.1808 20.92 15.4465 21.0792 15.6375 21.3118C15.8284 21.5444 15.9328 21.836 15.9329 22.137C15.9328 22.4818 15.7959 22.8125 15.5523 23.0566Z" fill="#454545"/>
<path id="Vector_4" d="M16.2149 14.7178C16.127 14.6299 16.0078 14.5806 15.8835 14.5806C15.7592 14.5806 15.64 14.6299 15.5521 14.7178L7.21319 23.0565C7.16857 23.0998 7.133 23.1515 7.10856 23.2086C7.08412 23.2658 7.07129 23.3272 7.07081 23.3894C7.07034 23.4515 7.08223 23.5131 7.1058 23.5707C7.12936 23.6282 7.16413 23.6804 7.20808 23.7244C7.25203 23.7683 7.30429 23.8031 7.3618 23.8267C7.41932 23.8503 7.48094 23.8622 7.5431 23.8617C7.60525 23.8612 7.6667 23.8484 7.72385 23.8239C7.781 23.7995 7.83272 23.7639 7.876 23.7193L16.2151 15.3807C16.3029 15.2928 16.3523 15.1735 16.3523 15.0492C16.3522 14.9249 16.3028 14.8057 16.2149 14.7178Z" fill="#454545"/>
</g>
</g>
<defs>
<clipPath id="clip0_464_683">
<rect width="30" height="30" fill="white" transform="translate(0.974121)"/>
</clipPath>
</defs>
</svg>
