<svg width="64" height="64" viewBox="0 0 64 64" fill="none" xmlns="http://www.w3.org/2000/svg">
<g id="2747637_christmas_gifts_new year_surprise_xmas_icon 1">
<g id="gifts_1_">
<g id="Gift_3_">
<g id="Group">
<g id="Group_2">
<g id="Group_3">
<path id="Vector" d="M43.3052 10.543C43.2632 10.5 43.2122 10.451 43.1612 10.403C43.4512 11.046 43.6152 11.582 43.5712 11.872C43.5712 11.872 43.3342 11.745 42.9252 11.592C43.0022 11.695 43.0562 11.786 43.0712 11.857C42.9722 15.301 36.9232 17.257 32.0582 18.185C32.4422 17.955 32.8662 17.691 33.3262 17.402C33.8692 17.061 34.3512 16.757 34.6472 16.603C38.1922 14.741 39.3442 12.569 39.6822 11.05C39.3432 11.058 38.9852 11.095 38.6192 11.15C38.2382 12.437 37.1432 14.163 34.1832 15.716C33.8722 15.88 33.3662 16.196 32.7952 16.555C32.0212 17.041 30.9242 17.73 30.2742 18.025C30.2642 18.018 30.2492 18.015 30.2382 18.008C30.1732 18.112 30.1172 18.21 30.0562 18.313H35.9042C39.9422 17.161 43.9762 15.188 44.0712 11.886C44.0832 11.513 43.8452 11.099 43.3052 10.543Z" fill="#464646"/>
<g id="Group_4">
<path id="Vector_2" d="M41.1479 6.303C40.1439 5.136 39.5939 5 39.2679 5C30.8509 5 28.0449 15.165 27.3779 18.313H28.3989C29.0909 15.146 31.7449 6 39.2669 6C39.3679 6.005 39.7979 6.224 40.5629 7.163C41.6229 8.46 42.5189 10.079 42.8939 11.046C42.1999 10.808 41.1519 10.546 39.8889 10.546C38.0579 10.546 36.3149 11.09 34.7059 12.161C32.8979 13.366 30.7429 16.113 29.4889 18.276C29.4539 18.286 29.4069 18.3 29.3649 18.312H30.6399C31.8399 16.369 33.7229 14.018 35.2609 12.993C36.7019 12.033 38.2589 11.546 39.8889 11.546C41.8979 11.546 43.3189 12.304 43.3319 12.311L43.9589 12.651L44.0649 11.947C44.2339 10.837 42.4399 7.806 41.1479 6.303Z" fill="#464646"/>
</g>
</g>
</g>
<g id="Group_5">
<g id="Group_6">
<path id="Vector_3" d="M26.0212 18.313C25.9592 18.21 25.9042 18.113 25.8392 18.008C25.8282 18.014 25.8132 18.018 25.8032 18.025C25.1532 17.73 24.0562 17.042 23.2822 16.555C22.7122 16.197 22.2052 15.88 21.8942 15.716C18.9342 14.163 17.8392 12.437 17.4582 11.15C17.0922 11.095 16.7342 11.058 16.3952 11.05C16.7322 12.569 17.8842 14.74 21.4302 16.603C21.7262 16.757 22.2082 17.061 22.7512 17.402C23.2122 17.692 23.6372 17.957 24.0222 18.187C19.1572 17.26 13.1052 15.31 13.0052 11.88C13.0212 11.802 13.0862 11.698 13.1722 11.584C12.7492 11.741 12.5052 11.873 12.5052 11.873C12.4612 11.583 12.6252 11.046 12.9152 10.404C12.8652 10.452 12.8132 10.501 12.7712 10.544C12.2312 11.1 11.9942 11.514 12.0042 11.887C12.0992 15.188 16.1342 17.162 20.1712 18.314L26.0212 18.313Z" fill="#464646"/>
<g id="Group_7">
<path id="Vector_4" d="M25.437 18.313H26.712C26.67 18.301 26.623 18.287 26.588 18.277C25.334 16.114 23.179 13.367 21.371 12.162C19.763 11.091 18.019 10.547 16.188 10.547C14.925 10.547 13.877 10.809 13.183 11.047C13.558 10.08 14.454 8.461 15.514 7.164C16.279 6.224 16.709 6.005 16.809 6C24.326 6 26.984 15.147 27.678 18.313H28.699C28.033 15.165 25.229 5 16.809 5C16.483 5 15.933 5.136 14.929 6.303C13.637 7.806 11.843 10.837 12.011 11.947L12.118 12.654L12.745 12.31C12.759 12.302 14.163 11.546 16.187 11.546C17.817 11.546 19.374 12.033 20.815 12.993C22.354 14.018 24.237 16.369 25.437 18.313Z" fill="#464646"/>
</g>
</g>
</g>
</g>
<g id="Group_8">
<g id="Group_9">
<path id="Vector_5" d="M42 30H5V18H42V30ZM6 29H41V19H6V29Z" fill="#464646"/>
</g>
</g>
</g>
<g id="Group_10">
<path id="Vector_6" d="M54 30H41V18H54V30ZM42 29H53V19H42V29Z" fill="#464646"/>
</g>
<g id="Group_11">
<path id="Vector_7" d="M40 29V35H41V30H51V35H52V29H40Z" fill="#464646"/>
<path id="Vector_8" d="M45 35V30H47V35H48V29H44V35H45Z" fill="#464646"/>
<g id="Group_12">
<path id="Vector_9" d="M41 35V29L40 30V35H41Z" fill="#464646"/>
<path id="Vector_10" d="M8 56V31H7V57H23V56H8Z" fill="#464646"/>
</g>
<path id="Vector_11" d="M21 56V30H27V35H28V29H20V57H23V56H21Z" fill="#464646"/>
<g id="Group_13">
<g id="Group_14">
<path id="Vector_12" d="M24 36V59H59V36H24ZM58 58H48V37H58V58ZM25 58V37H47V58H25Z" fill="#464646"/>
</g>
</g>
<g id="Group_15">
<g id="Group_16">
<g id="Group_17">
<path id="Vector_13" d="M58 44.6V54.2L56.417 58H52.417L58 44.6ZM59 39.6L57.077 44.215L51.494 57.615L50.917 59H52.417H56.417H57.084L57.34 58.385L58.923 54.585L59 54.4V54.2V44.6V39.6Z" fill="#464646"/>
</g>
</g>
</g>
</g>
<g id="Group_18">
<path id="Vector_14" d="M49 20V29H46V20H45V30H50V20H49Z" fill="#464646"/>
</g>
<g id="Group_19">
<path id="Vector_15" d="M28.077 38L25 46V38H24V46V51.386L25.934 46.359L29.148 38H28.077Z" fill="#464646"/>
<path id="Vector_16" d="M37.0772 38L29.3852 58H25.3852L33.0772 38H32.0062L24.4512 57.641L23.9292 59H25.3852H29.3852H30.0722L30.3182 58.359L38.1482 38H37.0772Z" fill="#464646"/>
<path id="Vector_17" d="M46.0002 58H43.3852L46.0002 51.2V48.415L42.4512 57.641L41.9292 59H43.3852H46.0002V58Z" fill="#464646"/>
<path id="Vector_18" d="M46.0002 38.199L38.3852 58H34.3852L42.0772 38H41.0062L33.4512 57.641L32.9292 59H34.3852H38.3852H39.0722L39.3182 58.359L46.0002 40.985V38.199Z" fill="#464646"/>
<path id="Vector_19" d="M27 20V29H20V20H19V30H28V20H27Z" fill="#464646"/>
</g>
<g id="Group_20">
<path id="Vector_20" d="M55.077 38L48 56.4V46L51.077 38H50.005L47.067 45.641L47 45.814V59H48.216L48.934 56.947L56.148 38H55.077Z" fill="#464646"/>
</g>
</g>
</g>
</svg>
