<svg width="345" height="109" viewBox="0 0 345 109" fill="none" xmlns="http://www.w3.org/2000/svg">
<mask id="mask0_138_84245" style="mask-type:luminance" maskUnits="userSpaceOnUse" x="186" y="83" width="87" height="16">
<path d="M195.908 97.7033H194.545V89.9936H191.859C191.751 91.3846 191.615 92.577 191.448 93.5705C191.286 94.5588 191.082 95.367 190.835 95.9955C190.592 96.6184 190.298 97.0776 189.948 97.373C189.604 97.6631 189.192 97.8081 188.714 97.8081C188.569 97.8081 188.431 97.8 188.302 97.7839C188.174 97.7677 188.064 97.7409 187.972 97.7033V96.6882C188.042 96.7097 188.115 96.7258 188.189 96.7366C188.27 96.7473 188.354 96.7527 188.44 96.7527C188.682 96.7527 188.902 96.6534 189.1 96.4547C189.305 96.2505 189.488 95.9444 189.649 95.5363C189.816 95.128 189.963 94.6125 190.093 93.9894C190.222 93.361 190.335 92.6226 190.431 91.774C190.533 90.92 190.622 89.9532 190.698 88.8737H195.908V97.7033ZM210.589 93.2724C210.589 94.2338 210.432 95.0582 210.121 95.7457C209.814 96.4332 209.374 96.9595 208.799 97.3246C208.223 97.6846 207.535 97.8644 206.734 97.8644C205.987 97.8644 205.333 97.7033 204.774 97.3811C204.221 97.0589 203.782 96.5889 203.46 95.9712C203.143 95.3536 202.96 94.6017 202.912 93.7155H200.565V97.7033H199.226V88.8737H200.565V92.5796H202.927C203.003 91.7632 203.202 91.0677 203.524 90.493C203.846 89.9184 204.283 89.478 204.83 89.1718C205.379 88.8657 206.024 88.7126 206.766 88.7126C207.54 88.7126 208.212 88.8952 208.782 89.2605C209.357 89.6203 209.801 90.1413 210.113 90.8233C210.43 91.5001 210.589 92.3164 210.589 93.2724ZM204.283 93.2724C204.283 94.0136 204.365 94.6447 204.532 95.1656C204.704 95.6813 204.971 96.076 205.33 96.3499C205.696 96.6184 206.17 96.7527 206.75 96.7527C207.326 96.7527 207.793 96.6184 208.153 96.3499C208.519 96.0814 208.785 95.6893 208.951 95.1737C209.123 94.6527 209.21 94.019 209.21 93.2724C209.21 92.5366 209.123 91.9136 208.951 91.4034C208.779 90.8931 208.514 90.5065 208.153 90.2433C207.793 89.9748 207.326 89.8405 206.75 89.8405C206.175 89.8405 205.704 89.9748 205.338 90.2433C204.979 90.5065 204.712 90.8931 204.54 91.4034C204.368 91.9136 204.283 92.5366 204.283 93.2724ZM212.955 92.4024C212.955 91.1456 213.076 90.0741 213.318 89.1879C213.56 88.2964 213.933 87.5821 214.44 87.045C214.95 86.5026 215.606 86.132 216.407 85.9333C217.095 85.7453 217.794 85.5842 218.504 85.4498C219.213 85.3102 219.904 85.1894 220.576 85.0874L220.81 86.2636C220.471 86.3119 220.117 86.3683 219.746 86.4327C219.374 86.4918 219.004 86.5563 218.632 86.6261C218.262 86.6906 217.912 86.7604 217.585 86.8356C217.256 86.9054 216.966 86.9778 216.714 87.0531C216.257 87.1766 215.862 87.3914 215.528 87.6975C215.2 88.0037 214.939 88.4253 214.745 88.9624C214.557 89.4995 214.444 90.1762 214.407 90.9925H214.503C214.665 90.7562 214.886 90.5226 215.165 90.2917C215.445 90.0607 215.778 89.8701 216.165 89.7197C216.552 89.5639 216.988 89.486 217.472 89.486C218.235 89.486 218.872 89.6525 219.383 89.9855C219.893 90.3131 220.278 90.775 220.536 91.3712C220.795 91.9673 220.923 92.6655 220.923 93.4658C220.923 94.4272 220.756 95.2354 220.423 95.8907C220.095 96.546 219.633 97.04 219.036 97.373C218.44 97.7007 217.738 97.8644 216.931 97.8644C216.308 97.8644 215.749 97.7436 215.253 97.502C214.765 97.2602 214.348 96.9058 214.004 96.4386C213.665 95.9712 213.405 95.3993 213.222 94.7225C213.044 94.0459 212.955 93.2724 212.955 92.4024ZM217.036 96.7527C217.546 96.7527 217.985 96.6453 218.35 96.4305C218.722 96.2156 219.007 95.8772 219.205 95.4154C219.41 94.9482 219.512 94.3412 219.512 93.5947C219.512 92.6601 219.332 91.9297 218.971 91.4034C218.617 90.8717 218.047 90.6059 217.262 90.6059C216.773 90.6059 216.329 90.7105 215.932 90.92C215.533 91.1242 215.197 91.3684 214.923 91.6532C214.649 91.9378 214.45 92.1929 214.327 92.4185C214.327 92.9663 214.367 93.498 214.447 94.0136C214.528 94.5292 214.668 94.9938 214.867 95.4073C215.066 95.8209 215.34 96.1485 215.69 96.3901C216.045 96.6319 216.493 96.7527 217.036 96.7527ZM224.161 97.7033H222.596L225.145 93.9814C224.773 93.9008 224.429 93.7639 224.113 93.5705C223.795 93.3717 223.537 93.1006 223.338 92.7568C223.145 92.4131 223.047 91.9861 223.047 91.476C223.047 90.6274 223.33 89.9828 223.895 89.5425C224.465 89.0966 225.215 88.8737 226.144 88.8737H230.056V97.7033H228.718V94.1586H226.476L224.161 97.7033ZM224.346 91.484C224.346 92.0103 224.534 92.4024 224.911 92.6601C225.287 92.9126 225.825 93.0388 226.524 93.0388H228.718V89.9936H226.29C225.602 89.9936 225.105 90.1332 224.798 90.4124C224.497 90.6864 224.346 91.0436 224.346 91.484ZM239.398 90.0097H236.487V97.7033H235.164V90.0097H232.293V88.8737H239.398V90.0097ZM253.454 91.0892C253.454 91.6424 253.293 92.0748 252.97 92.3863C252.648 92.6924 252.231 92.8992 251.72 93.0066V93.071C252.275 93.1462 252.75 93.3449 253.147 93.6672C253.551 93.9841 253.753 94.4701 253.753 95.1254C253.753 95.6302 253.632 96.076 253.39 96.4627C253.147 96.8493 252.769 97.1528 252.253 97.373C251.737 97.5933 251.065 97.7033 250.236 97.7033H246.43V88.8737H250.205C250.839 88.8737 251.398 88.9463 251.881 89.0913C252.371 89.2309 252.755 89.4618 253.035 89.7841C253.314 90.1063 253.454 90.5414 253.454 91.0892ZM252.357 95.1254C252.357 94.6044 252.159 94.2285 251.761 93.9975C251.368 93.7665 250.795 93.6511 250.043 93.6511H247.777V96.6158H250.075C250.817 96.6158 251.381 96.503 251.768 96.2774C252.162 96.0464 252.357 95.6624 252.357 95.1254ZM252.092 91.2423C252.092 90.8233 251.938 90.5118 251.632 90.3078C251.325 90.0983 250.823 89.9936 250.123 89.9936H247.777V92.5313H249.89C250.616 92.5313 251.164 92.4265 251.535 92.217C251.906 92.0076 252.092 91.6827 252.092 91.2423ZM259.95 97.8644C259.155 97.8644 258.453 97.7007 257.845 97.373C257.237 97.0454 256.764 96.546 256.425 95.8746C256.087 95.2032 255.918 94.3573 255.918 93.3369C255.918 92.2681 256.095 91.3953 256.45 90.7186C256.811 90.0365 257.305 89.5317 257.934 89.204C258.563 88.8765 259.277 88.7126 260.079 88.7126C260.52 88.7126 260.944 88.7583 261.353 88.8496C261.767 88.9355 262.106 89.0457 262.37 89.1799L261.967 90.2997C261.697 90.1923 261.386 90.0956 261.031 90.0097C260.681 89.9238 260.353 89.8808 260.047 89.8808C259.434 89.8808 258.923 90.0124 258.515 90.2756C258.111 90.5387 257.807 90.9254 257.603 91.4356C257.404 91.9459 257.305 92.5742 257.305 93.3208C257.305 94.0351 257.401 94.6447 257.595 95.1495C257.794 95.6544 258.087 96.0411 258.474 96.3096C258.867 96.5728 259.356 96.7043 259.942 96.7043C260.41 96.7043 260.831 96.656 261.208 96.5593C261.584 96.4573 261.926 96.3392 262.232 96.2049V97.3972C261.936 97.5476 261.606 97.6631 261.24 97.7436C260.881 97.8242 260.45 97.8644 259.95 97.8644ZM268.228 88.7126C268.98 88.7126 269.626 88.8791 270.164 89.2121C270.701 89.5451 271.112 90.0124 271.397 90.6139C271.682 91.2101 271.825 91.9082 271.825 92.7085V93.5383H265.72C265.736 94.5749 265.994 95.3643 266.494 95.9068C266.994 96.4492 267.699 96.7204 268.607 96.7204C269.166 96.7204 269.66 96.6695 270.091 96.5674C270.521 96.4654 270.968 96.3149 271.43 96.1162V97.2924C270.983 97.4912 270.54 97.6362 270.099 97.7275C269.663 97.8188 269.147 97.8644 268.551 97.8644C267.701 97.8644 266.959 97.6926 266.325 97.3489C265.696 96.9998 265.206 96.4895 264.857 95.8181C264.507 95.1469 264.332 94.3251 264.332 93.353C264.332 92.4024 264.492 91.5806 264.808 90.8878C265.131 90.1896 265.582 89.6525 266.163 89.2766C266.749 88.9006 267.437 88.7126 268.228 88.7126ZM268.212 89.8082C267.497 89.8082 266.927 90.0419 266.502 90.5092C266.077 90.9764 265.824 91.629 265.744 92.4668H270.421C270.416 91.9404 270.333 91.4786 270.171 91.0812C270.015 90.6783 269.776 90.3668 269.454 90.1467C269.132 89.921 268.717 89.8082 268.212 89.8082Z" fill="#E4E4E4" stroke="white" stroke-width="2"/>
</mask>
<g mask="url(#mask0_138_84245)">
<path d="M195.908 97.7033H194.545V89.9936H191.859C191.751 91.3846 191.615 92.577 191.448 93.5705C191.286 94.5588 191.082 95.367 190.835 95.9955C190.592 96.6184 190.298 97.0776 189.948 97.373C189.604 97.6631 189.192 97.8081 188.714 97.8081C188.569 97.8081 188.431 97.8 188.302 97.7839C188.174 97.7677 188.064 97.7409 187.972 97.7033V96.6882C188.042 96.7097 188.115 96.7258 188.189 96.7366C188.27 96.7473 188.354 96.7527 188.44 96.7527C188.682 96.7527 188.902 96.6534 189.1 96.4547C189.305 96.2505 189.488 95.9444 189.649 95.5363C189.816 95.128 189.963 94.6125 190.093 93.9894C190.222 93.361 190.335 92.6226 190.431 91.774C190.533 90.92 190.622 89.9532 190.698 88.8737H195.908V97.7033ZM210.589 93.2724C210.589 94.2338 210.432 95.0582 210.121 95.7457C209.814 96.4332 209.374 96.9595 208.799 97.3246C208.223 97.6846 207.535 97.8644 206.734 97.8644C205.987 97.8644 205.333 97.7033 204.774 97.3811C204.221 97.0589 203.782 96.5889 203.46 95.9712C203.143 95.3536 202.96 94.6017 202.912 93.7155H200.565V97.7033H199.226V88.8737H200.565V92.5796H202.927C203.003 91.7632 203.202 91.0677 203.524 90.493C203.846 89.9184 204.283 89.478 204.83 89.1718C205.379 88.8657 206.024 88.7126 206.766 88.7126C207.54 88.7126 208.212 88.8952 208.782 89.2605C209.357 89.6203 209.801 90.1413 210.113 90.8233C210.43 91.5001 210.589 92.3164 210.589 93.2724ZM204.283 93.2724C204.283 94.0136 204.365 94.6447 204.532 95.1656C204.704 95.6813 204.971 96.076 205.33 96.3499C205.696 96.6184 206.17 96.7527 206.75 96.7527C207.326 96.7527 207.793 96.6184 208.153 96.3499C208.519 96.0814 208.785 95.6893 208.951 95.1737C209.123 94.6527 209.21 94.019 209.21 93.2724C209.21 92.5366 209.123 91.9136 208.951 91.4034C208.779 90.8931 208.514 90.5065 208.153 90.2433C207.793 89.9748 207.326 89.8405 206.75 89.8405C206.175 89.8405 205.704 89.9748 205.338 90.2433C204.979 90.5065 204.712 90.8931 204.54 91.4034C204.368 91.9136 204.283 92.5366 204.283 93.2724ZM212.955 92.4024C212.955 91.1456 213.076 90.0741 213.318 89.1879C213.56 88.2964 213.933 87.5821 214.44 87.045C214.95 86.5026 215.606 86.132 216.407 85.9333C217.095 85.7453 217.794 85.5842 218.504 85.4498C219.213 85.3102 219.904 85.1894 220.576 85.0874L220.81 86.2636C220.471 86.3119 220.117 86.3683 219.746 86.4327C219.374 86.4918 219.004 86.5563 218.632 86.6261C218.262 86.6906 217.912 86.7604 217.585 86.8356C217.256 86.9054 216.966 86.9778 216.714 87.0531C216.257 87.1766 215.862 87.3914 215.528 87.6975C215.2 88.0037 214.939 88.4253 214.745 88.9624C214.557 89.4995 214.444 90.1762 214.407 90.9925H214.503C214.665 90.7562 214.886 90.5226 215.165 90.2917C215.445 90.0607 215.778 89.8701 216.165 89.7197C216.552 89.5639 216.988 89.486 217.472 89.486C218.235 89.486 218.872 89.6525 219.383 89.9855C219.893 90.3131 220.278 90.775 220.536 91.3712C220.795 91.9673 220.923 92.6655 220.923 93.4658C220.923 94.4272 220.756 95.2354 220.423 95.8907C220.095 96.546 219.633 97.04 219.036 97.373C218.44 97.7007 217.738 97.8644 216.931 97.8644C216.308 97.8644 215.749 97.7436 215.253 97.502C214.765 97.2602 214.348 96.9058 214.004 96.4386C213.665 95.9712 213.405 95.3993 213.222 94.7225C213.044 94.0459 212.955 93.2724 212.955 92.4024ZM217.036 96.7527C217.546 96.7527 217.985 96.6453 218.35 96.4305C218.722 96.2156 219.007 95.8772 219.205 95.4154C219.41 94.9482 219.512 94.3412 219.512 93.5947C219.512 92.6601 219.332 91.9297 218.971 91.4034C218.617 90.8717 218.047 90.6059 217.262 90.6059C216.773 90.6059 216.329 90.7105 215.932 90.92C215.533 91.1242 215.197 91.3684 214.923 91.6532C214.649 91.9378 214.45 92.1929 214.327 92.4185C214.327 92.9663 214.367 93.498 214.447 94.0136C214.528 94.5292 214.668 94.9938 214.867 95.4073C215.066 95.8209 215.34 96.1485 215.69 96.3901C216.045 96.6319 216.493 96.7527 217.036 96.7527ZM224.161 97.7033H222.596L225.145 93.9814C224.773 93.9008 224.429 93.7639 224.113 93.5705C223.795 93.3717 223.537 93.1006 223.338 92.7568C223.145 92.4131 223.047 91.9861 223.047 91.476C223.047 90.6274 223.33 89.9828 223.895 89.5425C224.465 89.0966 225.215 88.8737 226.144 88.8737H230.056V97.7033H228.718V94.1586H226.476L224.161 97.7033ZM224.346 91.484C224.346 92.0103 224.534 92.4024 224.911 92.6601C225.287 92.9126 225.825 93.0388 226.524 93.0388H228.718V89.9936H226.29C225.602 89.9936 225.105 90.1332 224.798 90.4124C224.497 90.6864 224.346 91.0436 224.346 91.484ZM239.398 90.0097H236.487V97.7033H235.164V90.0097H232.293V88.8737H239.398V90.0097ZM253.454 91.0892C253.454 91.6424 253.293 92.0748 252.97 92.3863C252.648 92.6924 252.231 92.8992 251.72 93.0066V93.071C252.275 93.1462 252.75 93.3449 253.147 93.6672C253.551 93.9841 253.753 94.4701 253.753 95.1254C253.753 95.6302 253.632 96.076 253.39 96.4627C253.147 96.8493 252.769 97.1528 252.253 97.373C251.737 97.5933 251.065 97.7033 250.236 97.7033H246.43V88.8737H250.205C250.839 88.8737 251.398 88.9463 251.881 89.0913C252.371 89.2309 252.755 89.4618 253.035 89.7841C253.314 90.1063 253.454 90.5414 253.454 91.0892ZM252.357 95.1254C252.357 94.6044 252.159 94.2285 251.761 93.9975C251.368 93.7665 250.795 93.6511 250.043 93.6511H247.777V96.6158H250.075C250.817 96.6158 251.381 96.503 251.768 96.2774C252.162 96.0464 252.357 95.6624 252.357 95.1254ZM252.092 91.2423C252.092 90.8233 251.938 90.5118 251.632 90.3078C251.325 90.0983 250.823 89.9936 250.123 89.9936H247.777V92.5313H249.89C250.616 92.5313 251.164 92.4265 251.535 92.217C251.906 92.0076 252.092 91.6827 252.092 91.2423ZM259.95 97.8644C259.155 97.8644 258.453 97.7007 257.845 97.373C257.237 97.0454 256.764 96.546 256.425 95.8746C256.087 95.2032 255.918 94.3573 255.918 93.3369C255.918 92.2681 256.095 91.3953 256.45 90.7186C256.811 90.0365 257.305 89.5317 257.934 89.204C258.563 88.8765 259.277 88.7126 260.079 88.7126C260.52 88.7126 260.944 88.7583 261.353 88.8496C261.767 88.9355 262.106 89.0457 262.37 89.1799L261.967 90.2997C261.697 90.1923 261.386 90.0956 261.031 90.0097C260.681 89.9238 260.353 89.8808 260.047 89.8808C259.434 89.8808 258.923 90.0124 258.515 90.2756C258.111 90.5387 257.807 90.9254 257.603 91.4356C257.404 91.9459 257.305 92.5742 257.305 93.3208C257.305 94.0351 257.401 94.6447 257.595 95.1495C257.794 95.6544 258.087 96.0411 258.474 96.3096C258.867 96.5728 259.356 96.7043 259.942 96.7043C260.41 96.7043 260.831 96.656 261.208 96.5593C261.584 96.4573 261.926 96.3392 262.232 96.2049V97.3972C261.936 97.5476 261.606 97.6631 261.24 97.7436C260.881 97.8242 260.45 97.8644 259.95 97.8644ZM268.228 88.7126C268.98 88.7126 269.626 88.8791 270.164 89.2121C270.701 89.5451 271.112 90.0124 271.397 90.6139C271.682 91.2101 271.825 91.9082 271.825 92.7085V93.5383H265.72C265.736 94.5749 265.994 95.3643 266.494 95.9068C266.994 96.4492 267.699 96.7204 268.607 96.7204C269.166 96.7204 269.66 96.6695 270.091 96.5674C270.521 96.4654 270.968 96.3149 271.43 96.1162V97.2924C270.983 97.4912 270.54 97.6362 270.099 97.7275C269.663 97.8188 269.147 97.8644 268.551 97.8644C267.701 97.8644 266.959 97.6926 266.325 97.3489C265.696 96.9998 265.206 96.4895 264.857 95.8181C264.507 95.1469 264.332 94.3251 264.332 93.353C264.332 92.4024 264.492 91.5806 264.808 90.8878C265.131 90.1896 265.582 89.6525 266.163 89.2766C266.749 88.9006 267.437 88.7126 268.228 88.7126ZM268.212 89.8082C267.497 89.8082 266.927 90.0419 266.502 90.5092C266.077 90.9764 265.824 91.629 265.744 92.4668H270.421C270.416 91.9404 270.333 91.4786 270.171 91.0812C270.015 90.6783 269.776 90.3668 269.454 90.1467C269.132 89.921 268.717 89.8082 268.212 89.8082Z" fill="#E4E4E4"/>
</g>
<path d="M6.90583 51.2898C6.94816 50.8851 6.65892 50.4735 6.03809 50.0548L6.2709 49.5942C7.03283 49.9291 7.6607 50.1106 8.15455 50.1385C8.63428 50.1664 10.1441 49.985 12.6838 49.5942C13.0507 50.2641 13.0436 50.5781 12.6626 50.5362C12.2675 50.4944 11.9501 50.7525 11.7102 51.3107C12.3028 57.7302 12.5497 61.1004 12.4509 61.4213C12.3945 61.5608 12.6344 61.4841 13.1706 61.1911C13.7491 60.8561 14.3769 60.4165 15.0542 59.8723C16.7898 58.4209 18.2924 56.8579 19.5623 55.1833C20.8886 53.2436 22.1444 51.9248 23.3296 51.227C24.1339 50.7664 24.8605 50.4804 25.5096 50.3688L25.7 49.7198C26.1516 49.5803 26.3843 49.5664 26.3985 49.678C26.4972 50.5571 26.7935 51.4852 27.2874 52.462C27.3579 52.6156 27.4496 52.79 27.5625 52.9853L27.6894 53.2156L27.7953 53.425C27.9646 53.732 28.0634 53.9483 28.0916 54.0739C28.134 54.2553 27.8588 54.4507 27.2662 54.66L27.0334 54.3041C26.1163 54.4158 25.3473 54.8344 24.7264 55.5601C24.4019 55.9229 23.767 56.7393 22.8216 58.0092C21.8762 59.0977 20.5993 60.3747 18.9909 61.84C20.9521 62.4679 22.4618 63.6681 23.5201 65.4404C23.901 66.0963 24.3173 66.9824 24.7688 68.0989L25.3614 69.5642C25.6013 70.1922 25.8058 70.7085 25.9751 71.1132C26.7088 72.8576 27.6683 73.8694 28.8535 74.1484C29.4461 74.288 29.9682 74.2531 30.4197 74.0438C30.4056 73.7787 30.4268 73.6182 30.4832 73.5624C30.5538 73.4647 30.7936 73.3879 31.2028 73.332V73.374C31.2028 73.4158 31.2098 73.4647 31.224 73.5205C31.224 73.6042 31.2311 73.681 31.2451 73.7508C31.2733 73.9601 31.3015 74.1764 31.3299 74.3997C31.3581 74.6648 31.3933 74.93 31.4356 75.1951C31.5344 75.8789 31.6402 76.479 31.7531 76.9953C31.8801 77.6513 32.0212 78.1467 32.1764 78.4816C32.2187 78.5793 32.1129 78.677 31.8589 78.7747C31.6332 78.8724 31.4568 78.9072 31.3299 78.8793C31.2311 78.8513 31.1252 78.8025 31.0123 78.7327C30.8571 78.649 30.7231 78.5514 30.6102 78.4397C27.7742 79.4584 25.3684 78.5793 23.3931 75.8022C22.7017 74.8253 22.0527 73.5972 21.4459 72.118C21.2342 71.5877 21.0156 70.9946 20.7898 70.3387C20.7193 70.1294 20.6346 69.8712 20.5358 69.5642L20.4088 69.2083L20.3031 68.8943C19.9503 67.8477 19.273 66.9545 18.2712 66.2149C17.2835 65.4893 16.2677 65.1194 15.2236 65.1055C14.4334 65.7195 13.4739 66.1382 12.3452 66.3614L12.8954 77.6861C13.5586 77.7001 13.9749 77.7629 14.1441 77.8745C14.2006 77.9024 14.257 77.9862 14.3134 78.1257C14.3699 78.2514 14.3981 78.3839 14.3981 78.5234C14.4263 78.9002 14.2782 79.0886 13.9536 79.0886C12.9377 79.0747 10.5955 79.2212 6.927 79.5282C6.77179 79.4584 6.68714 79.2142 6.67302 78.7956C6.67302 78.5025 6.90583 78.363 7.37146 78.3769C6.82118 62.9424 6.66597 53.9134 6.90583 51.2898ZM26.208 64.1635C26.1798 64.4426 26.1374 64.631 26.081 64.7287C26.2786 64.938 26.4972 65.1334 26.7371 65.3148C26.8218 65.0776 26.8711 64.8264 26.8853 64.5613C26.8853 64.4495 26.8923 64.3309 26.9064 64.2054C26.9205 64.1077 26.9275 64.01 26.9275 63.9123L26.208 63.3052C26.208 63.4588 26.2151 63.5983 26.2291 63.7239C26.2151 63.8914 26.208 64.0379 26.208 64.1635ZM25.8905 63.0122L25.4248 62.5935C25.4108 62.761 25.4037 62.9075 25.4037 63.0332C25.4319 63.5355 25.5871 64.01 25.8693 64.4566C25.8976 64.3449 25.9117 64.2402 25.9117 64.1425C25.9258 63.9053 25.9258 63.6262 25.9117 63.3052C25.9117 63.2075 25.9046 63.1098 25.8905 63.0122ZM26.9488 62.761C27.4285 62.7471 27.7389 62.6563 27.8799 62.4888C27.4849 62.2656 27.0334 62.1679 26.5254 62.1958C26.2573 62.2098 25.9611 62.2586 25.6366 62.3424L25.9963 62.7191H26.0598L26.081 62.7401H26.1445C26.2009 62.754 26.2644 62.754 26.335 62.7401C26.4337 62.754 26.5254 62.761 26.6101 62.761C26.723 62.761 26.8358 62.761 26.9488 62.761ZM28.0281 63.6192C28.4231 63.6332 28.7124 63.5983 28.8959 63.5146C28.6701 63.1518 28.4162 62.8587 28.134 62.6354L28.1551 62.6773C28.0281 62.8028 27.8447 62.9005 27.6048 62.9703C27.4355 63.0122 27.2168 63.0401 26.9488 63.0541C26.7512 63.068 26.5466 63.0611 26.335 63.0332C26.5466 63.2285 26.7512 63.4099 26.9488 63.5774L26.9275 63.5356L27.118 63.5565L27.1392 63.5774H27.2027C27.2592 63.5774 27.3226 63.5774 27.3932 63.5774C27.492 63.5913 27.5908 63.6053 27.6894 63.6192H28.0281ZM29.2769 64.3729C29.2345 64.2193 29.1781 64.0658 29.1075 63.9123L29.044 63.7658C28.8465 63.8495 28.5008 63.8983 28.0069 63.9123C27.8941 63.9123 27.7671 63.9123 27.626 63.9123C27.5272 63.8983 27.4285 63.8844 27.3297 63.8705L27.9223 64.31L28.0916 64.3518H28.1128L28.1763 64.3729H28.388L28.6631 64.3938C28.7618 64.4077 28.8535 64.4147 28.9382 64.4147C29.0087 64.4147 29.0793 64.4007 29.1499 64.3729L29.2134 64.3518L29.2556 64.3309L29.2769 64.3729ZM28.3245 65.9219C28.4797 65.9498 28.6278 65.9567 28.7689 65.9428C29.0229 65.9428 29.2556 65.894 29.4673 65.7963C29.1004 65.5451 28.7266 65.28 28.3456 65.0008C28.3597 65.1543 28.3738 65.2939 28.388 65.4195C28.3738 65.6567 28.3527 65.8242 28.3245 65.9219ZM28.0493 65.0636C28.0352 64.966 28.014 64.8612 27.9858 64.7496L27.2239 64.1425C27.1957 64.31 27.1815 64.4636 27.1815 64.6031L27.1392 64.8333L27.118 65.0636C27.0758 65.245 27.0405 65.3846 27.0123 65.4823C27.3226 65.6637 27.6683 65.7963 28.0493 65.88L28.0281 65.859C28.0422 65.859 28.0563 65.8172 28.0704 65.7335C28.0846 65.6358 28.0916 65.5381 28.0916 65.4404C28.0775 65.3288 28.0634 65.2032 28.0493 65.0636ZM29.3826 64.624L29.3191 64.6449C29.2345 64.6729 29.1146 64.6938 28.9594 64.7078C28.8042 64.7078 28.6278 64.7008 28.4302 64.6868C28.7689 64.9241 29.1499 65.1753 29.5731 65.4404C29.5167 65.1613 29.4532 64.8892 29.3826 64.624ZM28.7689 66.2359C28.1198 66.2637 27.4708 66.0963 26.8218 65.7335C25.7353 65.1055 25.1638 64.2123 25.1074 63.0541C25.1074 62.8308 25.1286 62.6005 25.1709 62.3633C24.8887 62.1121 24.6911 61.9098 24.5783 61.7562C24.5077 61.6167 24.5007 61.5399 24.5571 61.526C24.6136 61.4981 24.7194 61.5399 24.8746 61.6516C25.058 61.7632 25.2344 61.9098 25.4037 62.0911C25.7988 61.9795 26.1656 61.9098 26.5043 61.8818H26.5254C27.2309 61.8539 27.8447 62.0423 28.3667 62.447C28.79 62.7819 29.1286 63.2355 29.3826 63.8076C29.5802 64.2123 29.7213 64.6659 29.8059 65.1682C29.8483 65.3218 29.8765 65.4752 29.8907 65.6288V65.7544L29.9118 65.7963V65.88L29.8483 65.9219C29.5379 66.1173 29.1781 66.2219 28.7689 66.2359Z" fill="white"/>
<path d="M62.5457 74.8183L63.2653 74.9439L63.4134 75.844C63.5686 75.9138 63.7662 75.9557 64.006 75.9696C64.2035 75.9835 64.4082 75.9557 64.6198 75.8859C64.8597 75.8161 65.0924 75.6906 65.3182 75.5091C66.0096 74.9369 66.5951 73.7787 67.0749 72.0343C67.47 70.6248 67.7803 68.8734 68.0061 66.7801C68.2742 64.3938 68.4153 62.1121 68.4294 59.935L67.7521 59.2024L67.8156 58.5326H72.8316L72.8951 59.3071C72.7964 59.321 72.7047 59.3419 72.62 59.3699C72.4225 59.4536 72.3308 59.5792 72.3448 59.7466C72.4296 62.3981 72.8387 65.1055 73.5724 67.8686C73.911 69.1524 74.2638 70.1642 74.6307 70.9039C75.0116 71.6993 75.3644 72.0831 75.6889 72.0552C76.4085 71.9993 77.0787 71.3016 77.6995 69.9618C78.1933 68.8873 78.6379 67.436 79.0329 65.6079C79.4844 63.5006 79.8089 61.4143 80.0065 59.349L79.7313 59.1396L79.9006 58.5116L84.4511 58.2814L84.3876 59.0768C83.8937 59.2722 83.6468 59.4048 83.6468 59.4746C83.7738 65.3357 84.0207 69.5014 84.3876 71.9714C84.585 73.3809 84.8461 74.4485 85.1706 75.1741C85.4952 75.8999 85.8973 76.3116 86.377 76.4093C87.0119 76.5348 87.6751 76.2208 88.3665 75.4672C88.7192 75.0905 89.0014 74.6997 89.2131 74.295L89.0438 73.8344L89.4671 73.2693L92.409 76.2208L92.1973 76.8488L91.3084 76.9744C91.012 77.3791 90.5818 77.7768 90.0173 78.1676C88.8744 78.949 87.6328 79.3189 86.2924 79.277C84.8673 79.2491 83.7244 78.7118 82.8637 77.6652C82.1723 76.8279 81.6784 75.6906 81.3822 74.2531C81.1705 73.2204 81.0717 72.09 81.0859 70.862C81.0859 70.2619 81.107 69.7525 81.1494 69.3339C80.9095 70.6596 80.4792 71.9505 79.8583 73.2065C79.3081 74.309 78.6801 75.1393 77.9746 75.6975C77.0999 76.3952 76.1334 76.6465 75.0751 76.4511C74.3838 76.3255 73.7276 75.9069 73.1068 75.1951C72.613 74.6229 72.1544 73.8764 71.7311 72.9553C71.2514 71.9086 70.8987 70.8759 70.6729 69.8572C70.5459 70.7782 70.3413 71.783 70.0591 72.8716C69.4806 75.0625 68.7822 76.6045 67.9638 77.4977C66.9056 78.656 65.7557 79.2421 64.514 79.256C63.8931 79.2701 63.3781 79.1654 62.969 78.942L62.1223 79.5282L61.5933 79.2351L62.5457 74.8183Z" fill="white"/>
<path d="M95.0756 78.4188C95.2731 75.3068 95.4142 72.1947 95.4989 69.0827C95.5694 66.7243 95.6682 64.4495 95.7952 62.2586C95.908 60.2351 95.9927 59.1396 96.0492 58.9722C96.1479 58.6652 98.3702 58.4767 102.716 58.4069C104.084 58.3791 105.693 58.3651 107.541 58.3651C107.852 58.3651 108.184 58.3651 108.537 58.3651C108.677 58.3651 108.826 58.3651 108.981 58.3651H109.383C109.976 58.3651 110.349 58.3651 110.504 58.3651C111.379 58.3512 111.859 61.6028 111.944 68.1198C111.972 70.1572 111.958 72.3971 111.901 74.8392C111.873 76.0673 111.838 77.086 111.796 77.8954C112.064 77.8815 112.269 77.8466 112.409 77.7908C112.48 77.749 112.544 77.7559 112.6 77.8117C112.642 77.8676 112.664 77.9443 112.664 78.042C112.691 78.2792 112.642 78.4746 112.515 78.6281C112.388 78.7956 111.619 79.0049 110.208 79.256C108.783 79.5073 107.929 79.5841 107.647 79.4864C107.549 79.4584 107.534 79.1584 107.605 78.5863C107.689 78.5863 107.774 78.5653 107.859 78.5234C107.929 78.4955 107.993 78.4607 108.049 78.4188C108.12 78.363 108.169 78.3001 108.198 78.2303C108.254 78.1187 108.254 75.8161 108.198 71.3226C108.184 70.6387 108.169 69.7525 108.155 68.6641V68.0151C108.155 67.75 108.155 67.5407 108.155 67.3871C108.142 66.8987 108.134 66.494 108.134 66.173C108.106 64.4007 108.091 63.2634 108.091 62.761C108.091 62.7051 108.071 62.5098 108.029 62.1749C107.972 61.826 107.936 61.6306 107.922 61.5887C107.88 61.4771 107.619 61.4353 107.139 61.4631C107.055 61.4771 106.956 61.491 106.843 61.5051H106.695L106.568 61.526C106.37 61.5539 106.244 61.5678 106.187 61.5678C106.074 61.5678 105.891 61.5678 105.636 61.5678H105.277C105.121 61.5678 104.994 61.5678 104.896 61.5678C104.177 61.5817 103.569 61.5887 103.076 61.5887C101.482 61.6028 100.452 61.6376 99.9858 61.6934C99.8728 61.7074 99.7745 61.7214 99.689 61.7353C99.5622 61.7632 99.4914 61.7911 99.4777 61.8191C99.4216 61.8748 99.3715 62.0284 99.3293 62.2795L99.0118 78.1676C99.4354 78.2373 99.689 78.335 99.7745 78.4607C99.859 78.6002 99.8099 78.8444 99.6261 79.1933L94.3771 79.3607C94.2784 78.9421 94.2642 78.677 94.3348 78.5653C94.4195 78.4676 94.6664 78.4188 95.0756 78.4188ZM93.8057 56.4184C93.7069 56.209 93.6858 56.0067 93.7422 55.8113C93.7845 55.6159 93.8903 55.4764 94.0597 55.3927C94.2431 55.3089 94.4265 55.3089 94.61 55.3927C94.8075 55.4764 94.9556 55.6229 95.0544 55.8322C95.1532 56.0415 95.1743 56.2439 95.1179 56.4393C95.0614 56.6347 94.9486 56.7742 94.7792 56.8579C94.61 56.9417 94.4265 56.9417 94.229 56.8579C94.0455 56.7742 93.9045 56.6277 93.8057 56.4184Z" fill="white"/>
<path d="M119.161 65.273C119.203 64.3518 119.344 62.6074 119.584 60.0397C119.641 59.356 119.823 58.8605 120.134 58.5535C120.289 58.386 120.593 58.2883 121.044 58.2604C121.255 58.2326 121.461 58.2256 121.658 58.2395L130.865 57.9674C131.048 57.9813 131.203 58.0651 131.33 58.2185C131.415 58.3302 131.45 58.6163 131.436 59.0768C131.394 60.0257 131.351 61.4981 131.309 63.4936C131.252 65.6986 131.203 67.8197 131.161 69.8572C131.062 75.3556 131.062 78.2164 131.161 78.4397C131.26 78.6909 131.407 78.8723 131.605 78.984C131.704 79.0397 131.796 79.0747 131.88 79.0886L131.775 79.8631L126.865 79.9468C126.794 79.7934 126.73 79.6468 126.674 79.5073C126.589 79.2142 126.603 79.0607 126.716 79.0467C126.885 79.0328 127.027 78.9351 127.14 78.7536C127.211 78.656 127.26 78.5653 127.288 78.4816L127.626 61.526L122.822 61.6934C122.738 64.1496 122.589 66.6406 122.378 69.1665C122.11 72.4878 121.39 74.9788 120.219 76.6395C118.92 78.5095 116.995 79.4514 114.441 79.4654C114.271 79.5771 114.166 79.7445 114.123 79.9678C114.123 80.0097 114.081 80.0306 113.996 80.0306C113.94 80.0306 113.856 80.0097 113.743 79.9678C113.63 79.9399 113.51 79.898 113.383 79.8422L113.636 75.8858L113.7 75.6138L114.166 75.5091L114.441 76.0533C114.624 76.1231 114.85 76.1371 115.119 76.0952C115.344 76.0673 115.577 75.9905 115.816 75.8649C116.098 75.7254 116.367 75.5231 116.62 75.2579C117.27 74.5741 117.806 73.5274 118.229 72.118C118.737 70.3596 119.048 68.0779 119.161 65.273ZM121.446 54.3879C121.418 54.4716 121.383 54.5693 121.341 54.6809C121.284 54.6251 121.178 54.5693 121.024 54.5134C120.938 54.4995 120.847 54.4855 120.748 54.4716C121.016 54.2902 121.27 54.1018 121.51 53.9064C121.51 54.0739 121.488 54.2343 121.446 54.3879ZM120.769 55.4136C120.713 55.3717 120.628 55.3228 120.515 55.2671L120.388 55.1833L120.24 55.1205C120.141 55.0787 120.043 55.0367 119.943 54.9949C120.127 54.8693 120.318 54.7437 120.515 54.6181C120.585 54.632 120.656 54.646 120.727 54.66C120.811 54.674 120.889 54.6949 120.96 54.7228C121.03 54.7367 121.093 54.7577 121.15 54.7856C121.206 54.8135 121.235 54.8344 121.235 54.8483H121.255C121.129 55.0577 120.967 55.2461 120.769 55.4136ZM118.844 55.895C118.758 55.8671 118.667 55.8322 118.568 55.7904L118.928 55.5811C118.956 55.595 118.984 55.602 119.013 55.602C119.055 55.6159 119.09 55.6299 119.118 55.6438C119.33 55.6997 119.513 55.7554 119.668 55.8113C119.725 55.8392 119.781 55.8671 119.838 55.895C119.499 55.9927 119.168 55.9927 118.844 55.895ZM119.013 54.1994C119.097 54.325 119.09 54.5484 118.991 54.8693C118.977 54.939 118.956 55.0089 118.928 55.0787C118.9 55.1344 118.871 55.1903 118.844 55.2461C118.844 55.274 118.836 55.3019 118.822 55.3298C118.808 55.3438 118.8 55.3577 118.8 55.3717L118.78 55.3926V55.4136L118.758 55.4554C118.674 55.4973 118.561 55.5461 118.42 55.602C118.434 55.3787 118.469 55.1764 118.526 54.9949C118.624 54.674 118.787 54.4088 119.013 54.1994ZM119.161 54.0948C119.359 53.9413 119.605 53.8367 119.901 53.7808C119.916 53.9203 119.874 54.1157 119.774 54.3669C119.746 54.4367 119.718 54.5065 119.69 54.5763C119.676 54.632 119.654 54.6949 119.626 54.7647C119.598 54.8344 119.57 54.8903 119.541 54.9321L119.499 55.0367H119.521C119.365 55.1205 119.21 55.2112 119.055 55.3089C119.111 55.1694 119.153 55.0367 119.182 54.9112C119.238 54.7437 119.266 54.5972 119.266 54.4716C119.281 54.318 119.252 54.1855 119.182 54.0739L119.161 54.0948ZM119.457 55.5182C119.372 55.4903 119.281 55.4624 119.182 55.4345C119.365 55.3368 119.548 55.2321 119.732 55.1205C119.788 55.1484 119.852 55.1694 119.923 55.1833C119.994 55.2252 120.063 55.26 120.134 55.288C120.303 55.3577 120.458 55.4414 120.6 55.5391C120.445 55.6647 120.268 55.7624 120.07 55.8322C120.028 55.7764 119.916 55.7066 119.732 55.6229C119.661 55.595 119.57 55.56 119.457 55.5182ZM120.536 53.718L120.515 53.739C120.515 53.739 120.515 53.7459 120.515 53.7599C120.515 53.7738 120.515 53.7878 120.515 53.8017C120.515 53.8436 120.509 53.8924 120.494 53.9483C120.48 53.9901 120.458 54.046 120.431 54.1157C120.402 54.1716 120.374 54.2273 120.345 54.2832C120.345 54.3111 120.338 54.339 120.325 54.3669C120.311 54.3809 120.303 54.3948 120.303 54.4088L120.282 54.4297V54.4716H120.261L120.219 54.5763C120.092 54.674 119.95 54.7647 119.796 54.8483C119.823 54.7926 119.852 54.7297 119.88 54.66C119.908 54.5763 119.937 54.4995 119.965 54.4297C120.078 54.1087 120.12 53.8785 120.092 53.739H120.219C120.318 53.7249 120.423 53.718 120.536 53.718ZM121.298 53.7808C121.03 53.9762 120.783 54.1646 120.558 54.346C120.614 54.2064 120.656 54.0878 120.684 53.9901C120.713 53.8924 120.727 53.8157 120.727 53.7599V53.718C120.911 53.732 121.1 53.7529 121.298 53.7808ZM121.658 53.6552L121.595 53.6343H121.573C121.559 53.6343 121.545 53.6272 121.531 53.6133C121.517 53.6133 121.503 53.6133 121.488 53.6133C121.39 53.5854 121.284 53.5645 121.171 53.5506C120.833 53.5086 120.509 53.5017 120.198 53.5296C119.774 53.5715 119.408 53.6901 119.097 53.8855C118.716 54.1227 118.462 54.4786 118.335 54.953C118.265 55.1764 118.229 55.4275 118.229 55.7066C118.06 55.7764 117.919 55.8531 117.806 55.9369C117.707 56.0067 117.658 56.0624 117.658 56.1044C117.658 56.1462 117.714 56.1532 117.827 56.1253C117.954 56.0974 118.123 56.0276 118.335 55.916C118.491 55.9858 118.638 56.0415 118.78 56.0835C119.175 56.1951 119.563 56.1951 119.943 56.0835C120.282 55.9997 120.6 55.8322 120.896 55.5811C121.263 55.26 121.51 54.8833 121.637 54.4507C121.721 54.1855 121.735 53.9413 121.679 53.718L121.658 53.6552Z" fill="white"/>
<path d="M138.315 59.621C138.117 61.798 137.983 64.0589 137.912 66.4033C137.842 68.4548 137.856 70.1503 137.955 71.49C138.082 73.1507 138.329 74.2113 138.695 74.6718C139.217 75.6906 140.085 76.2139 141.299 76.2418C142.427 76.3116 143.457 75.8161 144.389 74.7555C145.306 73.7089 145.912 72.5157 146.209 71.176C146.421 70.1293 146.674 68.6012 146.971 66.5917C147.253 64.5263 147.429 62.3424 147.5 60.0397L146.76 59.5792V58.8047C147.832 58.9302 148.537 58.9582 148.876 58.8884C149.214 58.8326 149.97 58.8186 151.14 58.8466L151.098 59.349L150.632 59.5792C150.421 67.757 150.561 72.6483 151.056 74.2531C151.309 75.1184 151.733 75.4742 152.326 75.3207C152.621 75.2509 152.89 75.0975 153.13 74.8601L153.172 74.0857L153.997 73.9391L154.104 78.4607L154.273 79.6538L153.405 79.591C153.391 79.4514 153.334 79.3189 153.236 79.1933C153.052 78.9281 152.77 78.8095 152.389 78.8374C151.895 78.8933 151.338 78.8025 150.717 78.5653C150.039 78.3141 149.581 78.0071 149.342 77.6443C148.904 76.9744 148.629 76.1092 148.516 75.0486C148.276 75.5509 147.952 76.1022 147.542 76.7022C146.738 77.8745 145.899 78.656 145.024 79.0467C144.784 79.1583 144.509 79.2701 144.198 79.3817C143.803 79.5212 143.401 79.6329 142.992 79.7166C141.92 79.9678 140.924 80.0585 140.007 79.9888C137.383 79.7654 135.76 78.2653 135.14 75.4882C134.195 71.1899 134.272 66.0265 135.372 59.9979L134.59 59.621L134.674 58.8466C135.634 58.9722 136.325 58.9861 136.748 58.8884C137.186 58.8047 137.912 58.7489 138.928 58.7209L138.97 59.4326L138.315 59.621Z" fill="white"/>
<path d="M157.448 74.8183L158.167 74.9439L158.315 75.844C158.471 75.9138 158.668 75.9557 158.908 75.9696C159.106 75.9835 159.31 75.9557 159.521 75.8859C159.761 75.8161 159.994 75.6906 160.22 75.5091C160.911 74.9369 161.497 73.7787 161.977 72.0343C162.372 70.6248 162.682 68.8734 162.908 66.7801C163.177 64.3938 163.317 62.1121 163.332 59.935L162.654 59.2024L162.718 58.5326H167.734L167.797 59.3071C167.699 59.321 167.606 59.3419 167.522 59.3699C167.324 59.4536 167.233 59.5792 167.247 59.7466C167.331 62.3981 167.741 65.1055 168.474 67.8686C168.813 69.1524 169.166 70.1642 169.533 70.9039C169.914 71.6993 170.266 72.0831 170.591 72.0552C171.311 71.9993 171.981 71.3016 172.601 69.9618C173.096 68.8873 173.54 67.436 173.935 65.6079C174.386 63.5006 174.71 61.4143 174.908 59.349L174.634 59.1396L174.803 58.5116L179.353 58.2814L179.29 59.0768C178.796 59.2722 178.548 59.4048 178.548 59.4746C178.675 65.3357 178.923 69.5014 179.29 71.9714C179.487 73.3809 179.749 74.4485 180.073 75.1741C180.397 75.8999 180.799 76.3116 181.279 76.4093C181.914 76.5348 182.577 76.2208 183.268 75.4672C183.621 75.0905 183.903 74.6997 184.115 74.295L183.945 73.8344L184.369 73.2693L187.311 76.2208L187.099 76.8488L186.211 76.9744C185.914 77.3791 185.484 77.7768 184.919 78.1676C183.776 78.949 182.535 79.3189 181.194 79.277C179.769 79.2491 178.626 78.7118 177.766 77.6652C177.074 76.8279 176.581 75.6906 176.284 74.2531C176.073 73.2204 175.973 72.09 175.988 70.862C175.988 70.2619 176.009 69.7525 176.051 69.3339C175.811 70.6596 175.381 71.9505 174.761 73.2065C174.21 74.309 173.582 75.1393 172.876 75.6975C172.002 76.3952 171.036 76.6465 169.977 76.4511C169.286 76.3255 168.629 75.9069 168.008 75.1951C167.515 74.6229 167.056 73.8764 166.633 72.9553C166.154 71.9086 165.801 70.8759 165.575 69.8572C165.448 70.7782 165.244 71.783 164.961 72.8716C164.383 75.0625 163.684 76.6045 162.866 77.4977C161.807 78.656 160.658 79.2421 159.416 79.256C158.795 79.2701 158.28 79.1654 157.871 78.942L157.024 79.5282L156.495 79.2351L157.448 74.8183Z" fill="white"/>
<path d="M194.063 64.6031C193.512 65.6776 193.173 66.7383 193.046 67.7849C200.242 67.2825 204.186 67.0104 204.877 66.9685L204.75 66.4034L204.644 65.8381C204.546 65.4055 204.454 65.0427 204.369 64.7496C204.158 63.996 203.882 63.396 203.544 62.9494C202.712 61.833 201.167 61.3027 198.909 61.3585C197.738 61.3864 196.714 61.7353 195.84 62.4051C195.135 62.9494 194.542 63.6821 194.063 64.6031ZM194.803 59.5583C197.117 58.2605 199.777 57.8906 202.782 58.4489C205.294 58.9093 206.866 60.6537 207.501 63.6821C207.714 64.6589 207.819 65.7753 207.819 67.0313C207.819 67.2407 207.819 67.4709 207.819 67.722C207.805 67.8895 207.798 68.0849 207.798 68.3082C207.77 68.7827 207.756 69.0549 207.756 69.1246C207.756 69.4455 207.72 69.7107 207.65 69.92C207.579 70.1015 207.487 70.241 207.374 70.3387C207.248 70.4503 207.121 70.5062 206.994 70.5062L193.279 71.3853C193.956 73.3111 194.944 74.6928 196.243 75.5301C197.286 76.2139 198.492 76.5279 199.861 76.472C200.412 76.4581 200.969 76.3883 201.533 76.2627C201.999 76.1511 202.464 76.0115 202.93 75.844C203.452 75.6487 203.882 75.4533 204.221 75.2579L204.115 74.4624C204.708 74.3788 205.005 74.3927 205.005 74.5043C205.47 75.5929 206.211 76.793 207.227 78.1048L206.761 78.8584L205.893 78.2303C204.934 78.649 203.784 78.984 202.443 79.2351C201.272 79.4584 200.15 79.5561 199.078 79.5282C197.752 79.4864 196.538 79.2421 195.438 78.7956C194.281 78.335 193.265 77.6373 192.39 76.7022C191.544 75.7952 190.88 74.7346 190.4 73.5205C189.413 70.9946 189.314 68.3501 190.105 65.587C190.895 62.8657 192.461 60.8561 194.803 59.5583Z" fill="white"/>
<path d="M209.978 59.1187L209.725 58.6373C211.177 58.5814 213.011 58.4907 215.227 58.3651C215.269 58.4069 215.304 58.4558 215.333 58.5116C215.361 58.5535 215.382 58.6023 215.397 58.6582C215.41 58.7279 215.41 58.7977 215.397 58.8675C215.368 58.9372 215.311 59.0001 215.227 59.0559C215.171 59.0838 215.086 59.1117 214.973 59.1396C214.86 59.1675 214.747 59.1745 214.634 59.1606L214.762 67.408C220.546 67.7151 223.481 67.6453 223.566 67.1987C223.862 65.4823 223.968 63.696 223.884 61.84C223.841 60.9189 223.764 60.1653 223.651 59.5792C223.269 59.4815 223.03 59.3838 222.931 59.2862C222.832 59.1885 222.754 58.9582 222.698 58.5953L227.884 58.1139L227.798 58.7209C227.305 58.8745 227.072 58.9931 227.101 59.0768C227.354 59.8164 227.545 62.6773 227.672 67.6593C227.686 68.5664 227.707 69.5851 227.735 70.7155C227.749 71.511 227.763 72.5017 227.778 73.688C227.82 76.2139 227.855 77.8047 227.884 78.4607C227.884 78.5025 227.926 78.5443 228.011 78.5862C228.08 78.6141 228.18 78.642 228.307 78.67C228.462 78.6979 228.61 78.7188 228.751 78.7327L228.815 79.4235L223.46 79.5282L223.438 78.9421C223.551 78.956 223.678 78.956 223.82 78.9421C223.933 78.9281 224.024 78.8933 224.095 78.8374C224.193 78.7816 224.257 78.6979 224.286 78.5862C224.328 78.4746 224.342 78.0071 224.328 77.1837C224.299 76.3185 224.257 75.4393 224.201 74.5462C224.017 72.0761 223.771 70.862 223.46 70.9039C222.952 70.9736 222.169 70.9806 221.111 70.9248C220.8 70.8969 220.341 70.862 219.735 70.8202L219.036 70.7782C218.769 70.7643 218.543 70.7504 218.359 70.7364C217.301 70.6666 216.525 70.6596 216.032 70.7155C215.397 70.7992 215.079 70.9876 215.079 71.2806C215.079 71.7273 215.093 74.0507 215.121 78.2513C215.573 78.3211 215.841 78.4187 215.925 78.5443C215.954 78.5862 215.961 78.6561 215.946 78.7536C215.932 78.8235 215.912 78.9072 215.883 79.0049C215.841 79.1165 215.792 79.2212 215.735 79.3189L210.613 79.2351L210.571 78.6072C210.655 78.6072 210.747 78.5932 210.846 78.5653C210.931 78.5514 211.001 78.5234 211.057 78.4816C211.128 78.4257 211.17 78.356 211.184 78.2723C211.481 76.3185 211.615 74.0578 211.586 71.49C211.559 69.4944 211.432 67.3383 211.206 65.0217C211.121 64.1844 211.029 63.3122 210.931 62.4051C210.888 62.0563 210.839 61.7004 210.782 61.3376C210.768 61.184 210.755 61.0236 210.74 60.8561C210.726 60.7444 210.705 60.6049 210.677 60.4374C210.591 59.8373 210.549 59.4746 210.549 59.349C210.522 59.1536 210.535 59.1326 210.591 59.2862L209.978 59.1187Z" fill="white"/>
<path d="M230.931 62.2795C230.959 61.219 230.995 59.7118 231.037 57.7581C231.347 57.6325 231.545 57.6185 231.629 57.7162C231.643 57.7302 231.665 57.765 231.693 57.8209L231.714 57.9256L231.756 58.0092C231.827 58.1767 231.898 58.2535 231.969 58.2395C233.068 58.1837 234.586 58.1488 236.518 58.1349C238.056 58.1349 239.821 58.1419 241.81 58.1558C244.095 58.1837 246.177 58.2185 248.053 58.2605V57.9256L248.71 57.8209V61.9655L247.99 61.8818L247.757 61.2957C246.374 61.1143 245.175 61.0306 244.159 61.0445C242.833 61.0584 241.915 61.205 241.408 61.4841C241.309 61.5399 241.253 62.461 241.238 64.2472C241.238 65.6706 241.26 67.6174 241.302 70.0875C241.358 72.9064 241.435 75.7185 241.535 78.5234C241.957 78.4397 242.219 78.4397 242.318 78.5234C242.416 78.6211 242.459 78.8165 242.445 79.1096C242.445 79.2631 242.438 79.4026 242.423 79.5282L237.132 79.4445L236.962 78.8165L237.641 78.4816C237.683 75.8719 237.697 73.2134 237.683 70.5062C237.641 65.1194 237.457 62.2238 237.132 61.8191C236.977 61.6376 236.589 61.519 235.968 61.4631C235.474 61.4213 234.846 61.4213 234.085 61.4631C233.21 61.519 232.363 61.6028 231.545 61.7144L231.376 62.2795C231.079 62.3493 230.931 62.3493 230.931 62.2795ZM245.81 69.6061C246.008 69.6339 246.141 69.6618 246.212 69.6898C246.367 69.5642 246.501 69.4246 246.614 69.2712C246.459 69.2153 246.29 69.1804 246.106 69.1665C246.021 69.1525 245.937 69.1385 245.852 69.1246C245.782 69.1246 245.718 69.1176 245.662 69.1037C245.506 69.2851 245.358 69.4455 245.217 69.5851C245.457 69.5851 245.655 69.5921 245.81 69.6061ZM244.73 70.1084C244.843 70.1224 244.949 70.1294 245.047 70.1294C245.387 70.1154 245.704 70.0177 246 69.8363C245.93 69.8223 245.866 69.8154 245.81 69.8154C245.64 69.8014 245.45 69.7945 245.238 69.7945C245.167 69.7945 245.098 69.7945 245.027 69.7945L244.73 70.1084ZM244.858 69.1037C244.858 68.7688 244.801 68.5525 244.688 68.4548C244.519 68.7199 244.441 69.0269 244.455 69.3758C244.455 69.5572 244.49 69.7595 244.561 69.9829C244.66 69.8852 244.745 69.8014 244.815 69.7316L244.836 69.6898V69.6479C244.836 69.62 244.836 69.5991 244.836 69.5851C244.836 69.5572 244.843 69.5293 244.858 69.5014C244.858 69.4455 244.858 69.3828 244.858 69.313C244.858 69.2432 244.858 69.1735 244.858 69.1037ZM245.471 68.371C245.485 68.1058 245.464 67.9104 245.407 67.7849C245.14 67.9244 244.935 68.0989 244.794 68.3082V68.2873C244.892 68.371 244.963 68.4896 245.005 68.6431C245.034 68.7548 245.055 68.9013 245.069 69.0827C245.069 69.2223 245.062 69.3619 245.047 69.5014C245.175 69.3619 245.302 69.2292 245.429 69.1037H245.387L245.407 68.999V68.9781C245.407 68.9641 245.415 68.9502 245.429 68.9362C245.429 68.8943 245.429 68.8525 245.429 68.8106C245.443 68.7408 245.45 68.6711 245.45 68.6013C245.45 68.5315 245.457 68.4548 245.471 68.371ZM246 67.5337C245.888 67.5616 245.789 67.5965 245.704 67.6384L245.577 67.7011C245.633 67.8128 245.662 68.0431 245.662 68.3919C245.662 68.4617 245.662 68.5455 245.662 68.6431C245.648 68.7129 245.64 68.7827 245.64 68.8525C245.739 68.7129 245.845 68.5803 245.958 68.4548L245.979 68.3291C246.008 68.1058 246.021 67.9174 246.021 67.764C246.021 67.7081 246.015 67.6593 246 67.6174C246 67.6034 246 67.5895 246 67.5756C245.986 67.5616 245.979 67.5546 245.979 67.5546L246 67.5337ZM246.699 68.1617C246.868 68.1617 246.988 68.1756 247.058 68.2035C247.072 68.0919 247.08 67.9942 247.08 67.9105C247.08 67.7291 247.045 67.5686 246.974 67.4291C246.805 67.6802 246.621 67.9315 246.423 68.1826C246.523 68.1687 246.614 68.1617 246.699 68.1617ZM246.466 68.371C246.395 68.385 246.325 68.3989 246.254 68.4128C246.099 68.5943 245.951 68.7618 245.81 68.9152C245.922 68.9292 246.028 68.9431 246.128 68.9572L246.297 68.9781L246.466 69.0199C246.579 69.0338 246.67 69.0549 246.741 69.0827C246.868 68.8595 246.96 68.6291 247.016 68.3919V68.4128C247.016 68.3989 246.981 68.385 246.91 68.371C246.854 68.3571 246.79 68.3501 246.72 68.3501C246.65 68.3501 246.565 68.3571 246.466 68.371ZM246.17 67.4709L246.191 67.5127C246.205 67.5686 246.212 67.6454 246.212 67.7431C246.226 67.8547 246.226 67.9803 246.212 68.1198C246.381 67.8826 246.557 67.6314 246.741 67.3662C246.543 67.3802 246.353 67.415 246.17 67.4709ZM247.27 67.8895C247.284 68.3361 247.165 68.7757 246.91 69.2083C246.712 69.5293 246.459 69.7875 246.148 69.9829C245.81 70.2061 245.443 70.3247 245.047 70.3387C244.907 70.3387 244.745 70.3247 244.561 70.2969C244.392 70.4782 244.25 70.6039 244.137 70.6736C244.039 70.7295 243.983 70.7364 243.968 70.6946C243.955 70.6527 243.983 70.5759 244.053 70.4643C244.137 70.3526 244.25 70.241 244.392 70.1294C244.307 69.8502 244.257 69.5991 244.243 69.3758C244.23 68.8874 244.37 68.4687 244.667 68.1198C244.892 67.8407 245.21 67.6174 245.619 67.45C245.902 67.3244 246.212 67.2337 246.55 67.1778C246.663 67.1639 246.769 67.1499 246.868 67.136C246.896 67.136 246.925 67.136 246.952 67.136H247.058L247.08 67.1778C247.207 67.3871 247.27 67.6244 247.27 67.8895Z" fill="white"/>
<path d="M256.367 76.6829L256.381 76.6855L256.395 76.6871C256.495 76.6994 256.58 76.7115 256.654 76.7233C256.778 76.753 256.902 76.7757 257.025 76.7913C257.333 76.8345 257.628 76.8637 257.909 76.8784C258.676 76.9221 259.36 76.8799 259.953 76.7406L259.965 76.7377C260.838 76.5102 261.513 76.0595 261.91 75.3517C262.301 74.6566 262.383 73.7871 262.233 72.7978V72.7964C262.086 71.8532 261.641 71.0913 260.893 70.5485L260.885 70.543L260.877 70.5377C260.278 70.1374 259.539 69.8876 258.683 69.7687L258.682 69.7685C257.709 69.6357 256.758 69.6648 255.826 69.858L255.486 69.9287L255.439 70.2728C255.31 71.227 255.238 72.195 255.223 73.1764C255.201 74.1449 255.251 74.9249 255.391 75.4902C255.518 76.0082 255.78 76.5759 256.367 76.6829ZM253.921 79.0003L253.917 78.9998C253.394 78.9298 253.094 78.8592 252.964 78.8041L252.953 78.7998C252.929 78.79 252.845 78.7407 252.713 78.5741L252.707 78.566L252.7 78.5583C252.689 78.5463 252.647 78.4821 252.606 78.3096C252.566 78.147 252.537 77.9245 252.524 77.6339L252.566 59.1826L252.567 58.8129L252.374 58.7571L255.628 58.4577L255.638 58.5328L255.092 58.6886L254.712 58.7973L254.737 59.1918L255.245 67.1672L255.276 67.6482L255.758 67.6264C259.082 67.4756 261.413 68.147 262.868 69.523C264.309 70.8836 264.894 72.9471 264.497 75.8402C264.379 76.712 263.997 77.3992 263.346 77.928C262.684 78.4668 261.715 78.8641 260.396 79.0859L260.392 79.0866C259.403 79.2608 258.267 79.3297 256.981 79.2888C256.012 79.2476 254.992 79.1516 253.921 79.0003ZM270.668 58.4994C271.06 58.52 271.362 58.5515 271.585 58.5906L271.564 58.604C271.469 58.652 271.376 58.706 271.294 58.7677L271.284 58.7753C271.099 58.9207 270.904 59.1367 270.868 59.4355L270.867 59.4429L270.866 59.4502C270.709 61.1424 270.624 63.1452 270.609 65.4562C270.582 67.3205 270.603 69.3371 270.673 71.506C270.758 73.9948 270.872 76.1795 271.013 78.058L271.053 78.5772L271.57 78.5075L271.892 78.4639C271.896 78.473 271.901 78.4908 271.901 78.5234C271.901 78.589 271.882 78.6988 271.818 78.8629C271.763 78.9641 271.697 79.0119 271.612 79.0383L271.603 79.0412L271.593 79.0445C271.489 79.0815 271.253 79.1134 270.833 79.1007C270.667 79.0871 270.441 79.0667 270.153 79.0396L269.943 79.0187L269.92 79.0164H269.895H269.72C269.545 78.9911 269.384 78.9759 269.239 78.9746C268.542 78.9173 267.875 78.874 267.242 78.8449C267.211 78.5547 267.241 78.3532 267.298 78.2165L267.316 78.2121L267.343 78.1981C267.343 78.1981 267.344 78.198 267.344 78.1979H267.355H267.415L267.473 78.1835L267.552 78.1641C267.723 78.1258 267.915 78.0533 268.066 77.9041C268.238 77.734 268.308 77.5126 268.289 77.2905V77.2868C268.08 74.9412 268.009 71.2158 268.08 66.097C268.122 63.5325 268.186 61.2062 268.269 59.1175L268.284 58.7739L267.965 58.6435L267.629 58.5063C268.916 58.4622 269.927 58.4605 270.668 58.4994Z" fill="white"/>
<path fill-rule="evenodd" clip-rule="evenodd" d="M47.174 60.9223C44.4271 58.5963 41.8546 58.1106 39.9003 58.6079C37.9366 59.1076 36.4103 60.6419 35.8044 62.748C34.6293 66.8323 36.9508 73.5308 47.8095 77.9895C58.6682 73.5308 60.9897 66.8323 59.8147 62.748C59.2088 60.6419 57.6824 59.1076 55.7188 58.6079C53.7644 58.1106 51.1919 58.5963 48.445 60.9223L47.8095 61.4605L47.174 60.9223ZM39.6577 57.6565C37.3261 58.2498 35.5534 60.0658 34.8597 62.4768C33.4805 67.2709 36.3696 74.4199 47.625 78.9747L47.8095 79.0493L47.994 78.9747C59.2494 74.4199 62.1386 67.2709 60.7593 62.4768C60.0657 60.0659 58.2929 58.2498 55.9614 57.6565C53.6298 57.0632 50.7392 57.6925 47.8095 60.1733C44.8798 57.6925 41.9892 57.0632 39.6577 57.6565Z" fill="white"/>
<path d="M284.831 13.9642L285.23 14.1709L285.471 13.7926C288.018 9.81024 291.076 8.22328 293.819 8.24115C296.571 8.25908 299.137 9.89169 300.709 12.6175C303.816 18.0096 303.008 27.7796 291.371 37.0436C276.652 34.8272 271.057 26.7695 271.047 20.5488C271.042 17.4045 272.446 14.7102 274.821 13.3214C277.188 11.9371 280.631 11.7857 284.831 13.9642Z" fill="#D8C3B2"/>
<path fill-rule="evenodd" clip-rule="evenodd" d="M301.56 12.1275C305.009 18.1112 303.845 28.4567 291.815 37.9457L291.648 38.0767L291.439 38.0462C276.267 35.8317 270.075 27.4535 270.064 20.5504C270.059 17.1183 271.599 14.0685 274.325 12.4741C276.976 10.9233 280.643 10.8099 284.887 12.8924C287.52 8.97077 290.752 7.23933 293.825 7.25936C296.984 7.27994 299.846 9.15267 301.56 12.1275ZM293.819 8.24115C291.076 8.22328 288.018 9.81025 285.472 13.7927L285.23 14.1709L284.831 13.9641C280.631 11.7857 277.188 11.9372 274.821 13.3214C272.447 14.7102 271.042 17.4044 271.047 20.5489C271.057 26.7695 276.652 34.8273 291.372 37.0436C303.008 27.7796 303.817 18.0096 300.709 12.6175C299.137 9.89169 296.571 8.25909 293.819 8.24115Z" fill="white"/>
<path fill-rule="evenodd" clip-rule="evenodd" d="M275.788 27.7017C274.408 26.1101 273.42 24.3935 272.926 23.2845L273.824 22.8858C274.282 23.9134 275.22 25.5463 276.531 27.0589C277.847 28.5759 279.499 29.9273 281.374 30.468L281.102 31.4114C278.969 30.7964 277.165 29.289 275.788 27.7017Z" fill="white"/>
<path fill-rule="evenodd" clip-rule="evenodd" d="M279.053 28.4333C277.878 27.8469 277.115 26.7454 276.867 26.2499L277.746 25.8112C277.935 26.1886 278.569 27.0944 279.492 27.5551L279.053 28.4333Z" fill="white"/>
<path fill-rule="evenodd" clip-rule="evenodd" d="M287.514 41.3398C287.416 41.9257 287.49 42.5744 287.986 43.017C288.241 43.245 288.531 43.3872 288.846 43.4298C289.158 43.4721 289.459 43.4117 289.733 43.2893C290.268 43.0501 290.732 42.5604 291.091 41.9919C291.808 40.8546 292.244 39.1696 291.885 37.7036L291.792 37.3258L291.403 37.3295C290.785 37.3355 290.176 37.6377 289.658 38.0339C289.132 38.4369 288.648 38.9767 288.273 39.5484C287.9 40.1169 287.613 40.7476 287.514 41.3398ZM291.008 38.3882C290.778 38.4674 290.523 38.6084 290.256 38.8131C289.829 39.1405 289.418 39.5949 289.095 40.087C288.769 40.5823 288.553 41.0851 288.483 41.502C288.412 41.9252 288.502 42.1613 288.641 42.2849L288.641 42.2851C288.768 42.3988 288.881 42.4438 288.978 42.4569C289.077 42.4703 289.193 42.4549 289.332 42.3931C289.621 42.2639 289.955 41.9514 290.259 41.4687C290.79 40.6264 291.121 39.4421 291.008 38.3882Z" fill="white"/>
<path fill-rule="evenodd" clip-rule="evenodd" d="M298.301 37.5345C298.705 37.9699 299 38.5524 298.83 39.1945C298.742 39.5251 298.578 39.8034 298.339 40.0116C298.102 40.2183 297.816 40.3336 297.52 40.3817C296.942 40.4758 296.285 40.3219 295.672 40.0439C294.447 39.4878 293.155 38.3204 292.648 36.8985L292.518 36.5321L292.845 36.3213C293.365 35.9866 294.04 35.9045 294.69 35.9513C295.351 35.9988 296.052 36.1839 296.681 36.4552C297.305 36.7249 297.892 37.0944 298.301 37.5345ZM293.757 36.9887C293.993 36.9286 294.283 36.9064 294.619 36.9305C295.156 36.9692 295.75 37.123 296.291 37.3564C296.835 37.5915 297.292 37.8926 297.58 38.2025C297.872 38.5169 297.927 38.7634 297.88 38.9427L297.88 38.9431C297.836 39.1079 297.766 39.2076 297.693 39.2716C297.618 39.3372 297.512 39.3884 297.362 39.4127C297.05 39.4635 296.599 39.3861 296.079 39.15C295.172 38.7382 294.243 37.9307 293.757 36.9887Z" fill="white"/>
<path fill-rule="evenodd" clip-rule="evenodd" d="M292.14 37.0114C292.392 36.9116 292.407 36.3977 292.507 36.6498C292.722 37.1931 292.866 37.8033 292.992 38.4089C293.032 38.6049 293.071 38.7992 293.109 38.9923C293.192 39.4102 293.273 39.8219 293.373 40.2312C293.664 41.4297 294.07 42.4097 294.889 42.9839C295.852 43.6589 296.865 43.8895 298.071 44.1639C298.233 44.2008 298.399 44.2385 298.568 44.2782C299.27 44.4424 300.058 44.7109 300.775 45.103C301.489 45.4934 302.164 46.0228 302.598 46.7232C303.374 47.9748 302.966 49.3826 302.623 50.4325C302.523 50.7392 302.412 51.0373 302.307 51.3205C302.288 51.3698 302.27 51.4187 302.252 51.4671C302.13 51.7982 302.018 52.1104 301.929 52.4226C301.753 53.04 301.674 53.639 301.803 54.3043C301.903 54.8233 302.352 55.4136 302.935 55.7412C303.503 56.0604 304.065 56.0689 304.497 55.6777C304.698 55.4954 305.008 55.5103 305.191 55.711C305.373 55.9117 305.358 56.2222 305.157 56.4045C304.31 57.1733 303.252 57.0462 302.453 56.5968C301.668 56.1557 301.003 55.3444 300.838 54.4913C300.67 53.6267 300.781 52.8641 300.983 52.1539C301.083 51.8022 301.207 51.4591 301.33 51.1265C301.349 51.0758 301.368 51.0254 301.387 50.9753C301.492 50.6915 301.595 50.4145 301.688 50.1282C302.047 49.0313 302.27 48.058 301.762 47.2402C301.449 46.7337 300.93 46.3067 300.303 45.9643C299.68 45.6237 298.98 45.3829 298.344 45.2341C298.183 45.1964 298.021 45.1599 297.859 45.1233C296.667 44.8543 295.456 44.5809 294.324 43.7876C293.193 42.9939 292.718 41.6988 292.418 40.463C292.313 40.0327 292.224 39.5856 292.14 39.1573C292.103 38.9695 292.066 38.7854 292.029 38.6078C291.906 38.01 291.775 37.4706 291.593 37.0114C291.493 36.7594 291.887 37.1113 292.14 37.0114Z" fill="white"/>
<path fill-rule="evenodd" clip-rule="evenodd" d="M318.171 36.1028L318.591 36.1974C319.249 36.3453 319.886 36.7795 320.433 37.304C320.986 37.8358 321.487 38.4996 321.866 39.1741C322.241 39.8429 322.516 40.5569 322.583 41.1902C322.649 41.8124 322.518 42.5081 321.879 42.8651L321.879 42.8651C321.218 43.2347 320.534 43.1088 319.967 42.7457C319.417 42.3931 318.943 41.8029 318.582 41.1343C317.868 39.8091 317.489 37.9591 318.022 36.5073L318.171 36.1028ZM318.816 37.3198C318.623 38.3609 318.9 39.6533 319.448 40.6688C319.762 41.251 320.136 41.6875 320.498 41.9193C320.843 42.1406 321.134 42.1569 321.399 42.0083M318.816 37.3198C319.113 37.4702 319.431 37.7045 319.751 38.0118C320.229 38.4707 320.672 39.056 321.008 39.6543C321.347 40.2583 321.558 40.8407 321.605 41.2932C321.654 41.7566 321.529 41.9357 321.399 42.0083" fill="white"/>
<path fill-rule="evenodd" clip-rule="evenodd" d="M313.056 37.2205C312.764 37.535 312.709 37.7815 312.757 37.9608L312.757 37.9612C312.8 38.126 312.87 38.2257 312.944 38.2898C313.019 38.3553 313.125 38.4065 313.274 38.4308C313.587 38.4817 314.038 38.4042 314.557 38.1682C315.465 37.7563 316.393 36.9489 316.879 36.0069C316.643 35.9468 316.353 35.9245 316.017 35.9487C315.48 35.9873 314.887 36.1411 314.346 36.3745C313.801 36.6096 313.344 36.9107 313.056 37.2205ZM315.947 34.9694C316.597 34.9226 317.272 35.0048 317.792 35.3395L318.119 35.5503L317.988 35.9167C317.481 37.3386 316.189 38.506 314.964 39.0621C314.352 39.34 313.695 39.494 313.116 39.3999C312.82 39.3517 312.535 39.2364 312.297 39.0297C312.058 38.8214 311.894 38.543 311.807 38.2123L312.282 38.0867L311.807 38.2126C311.807 38.2125 311.807 38.2124 311.807 38.2123C311.636 37.5702 311.931 36.9879 312.336 36.5526C312.745 36.1125 313.331 35.743 313.956 35.4733C314.584 35.202 315.285 35.0169 315.947 34.9694Z" fill="white"/>
<path fill-rule="evenodd" clip-rule="evenodd" d="M316.824 37.78C317.531 36.6969 317.727 35.8821 317.727 35.5199H318.71C318.71 36.1396 318.415 37.1412 317.648 38.3163C316.872 39.5042 315.597 40.898 313.586 42.3039C312.727 42.9047 312.163 43.8577 311.836 45.0684C311.51 46.281 311.432 47.7175 311.522 49.2238C311.703 52.2364 312.549 55.4292 313.276 57.4446L312.351 57.7771C311.603 55.7016 310.729 52.4144 310.541 49.2825C310.447 47.7165 310.523 46.1646 310.887 44.8132C311.252 43.4599 311.916 42.2734 313.023 41.4996C314.944 40.1564 316.126 38.8502 316.824 37.78Z" fill="white"/>
<path d="M323.739 15.781L323.98 16.1524L324.374 15.9512C328.172 14.0147 331.285 14.1638 333.425 15.4053C335.572 16.6509 336.847 19.0568 336.852 21.861C336.863 27.4016 331.843 34.5991 318.504 36.5441C307.927 28.2038 307.186 19.4659 309.97 14.6728C311.38 12.2468 313.69 10.7996 316.174 10.7922C318.649 10.7847 321.419 12.2091 323.739 15.781Z" fill="#D6B3B1"/>
<path fill-rule="evenodd" clip-rule="evenodd" d="M318.504 36.5441C307.927 28.2037 307.186 19.4658 309.971 14.6728C311.38 12.2467 313.69 10.7996 316.174 10.7922C318.649 10.7847 321.42 12.2091 323.739 15.781L323.98 16.1524L324.374 15.9512C328.172 14.0147 331.285 14.1638 333.425 15.4053C335.572 16.6509 336.847 19.0568 336.852 21.861C336.863 27.4016 331.843 34.5992 318.504 36.5441ZM324.32 14.8823C321.914 11.366 318.97 9.80195 316.171 9.81034C313.286 9.81898 310.677 11.5005 309.12 14.1799C305.987 19.573 307.099 28.8876 318.063 37.4466L318.228 37.5751L318.434 37.5459C332.218 35.6048 337.847 28.0935 337.835 21.8592C337.829 18.7618 336.413 16.0037 333.918 14.5563C331.499 13.1523 328.166 13.0378 324.32 14.8823Z" fill="white"/>
<path fill-rule="evenodd" clip-rule="evenodd" d="M331.505 27.5037C332.648 26.1851 333.466 24.7616 333.864 23.8676L334.762 24.2662C334.328 25.2417 333.46 26.749 332.248 28.1465C331.04 29.5398 329.452 30.8686 327.569 31.4113L327.296 30.4679C328.922 29.9995 330.358 28.8267 331.505 27.5037Z" fill="white"/>
<path fill-rule="evenodd" clip-rule="evenodd" d="M329.179 27.555C330.102 27.0943 330.736 26.1885 330.924 25.8112L331.804 26.2498C331.556 26.7453 330.793 27.8468 329.618 28.4333L329.179 27.555Z" fill="white"/>
<path d="M325.958 63.8306H283.695V98.1942H325.958V63.8306Z" fill="#AD6A75"/>
<path d="M327.924 56.9579H280.747V64.8124H327.924V56.9579Z" fill="#AD6A75"/>
<path fill-rule="evenodd" clip-rule="evenodd" d="M280.255 56.467H328.415V65.3033H280.255V56.467ZM281.238 57.4488V64.3215H327.433V57.4488H281.238Z" fill="white"/>
<path fill-rule="evenodd" clip-rule="evenodd" d="M283.204 63.3397H326.45V98.6851H283.204V63.3397ZM284.187 64.3215V97.7033H325.467V64.3215H284.187Z" fill="white"/>
<path d="M307.284 63.8306H301.387V98.1942H307.284V63.8306Z" fill="#D6B3B1"/>
<path fill-rule="evenodd" clip-rule="evenodd" d="M300.896 63.3397H307.776V98.6851H300.896V63.3397ZM301.878 64.3215V97.7033H306.793V64.3215H301.878Z" fill="white"/>
<path d="M312.69 49.6114C310.085 48.7523 306.792 53.2015 305.472 55.5334L306.547 56.8834C308.543 56.6993 315.946 50.6853 312.69 49.6114Z" fill="#CC9592"/>
<path d="M313.519 50.3785C314.891 52.6797 317.223 58.0185 315.577 60.9642C313.941 63.8925 309.558 63.0406 307.535 62.2367C307.522 62.2338 307.51 62.2289 307.499 62.2223C307.511 62.2271 307.522 62.2319 307.535 62.2367C307.692 62.2737 307.864 61.9618 307.499 60.412C307.106 58.7428 306.598 57.4664 306.393 57.0368C308.922 55.6766 313.888 52.4406 313.519 50.3785Z" fill="#D6B3B1"/>
<path d="M308.612 75.894C307.86 69.2515 305.991 64.6621 304.328 62.9907C304.671 63.2411 306.777 62.5845 307.788 62.2249C308.138 62.4965 309.216 62.7431 309.711 62.8325L311.01 63.2143C313.338 64.1853 315.135 69.517 315.742 72.0615L311.458 69.698L308.612 75.894Z" fill="#D6B3B1"/>
<path d="M302.17 56.3498C302.208 56.2396 302.255 56.1316 302.315 56.0315C303.51 54.0276 305.134 54.2538 306.269 56.0218C306.337 56.1285 306.39 56.2442 306.433 56.3634L307.926 60.5049C308.296 62.1033 307.214 63.0659 306.164 63.162L304.347 63.4018L302.5 63.162C300.994 62.86 300.562 62.0892 300.714 60.6967C300.728 60.5693 300.759 60.4439 300.801 60.3226L302.17 56.3498Z" fill="#D6B3B1"/>
<path d="M295.981 49.6114C298.586 48.7523 301.879 53.2015 303.199 55.5334L302.124 56.8834C300.128 56.6993 292.725 50.6853 295.981 49.6114Z" fill="#CC9592"/>
<path d="M295.152 50.3785C293.78 52.6797 291.448 58.0185 293.094 60.9642C294.73 63.8925 299.113 63.0406 301.136 62.2367C301.149 62.2338 301.161 62.2289 301.172 62.2223C301.16 62.2271 301.148 62.2319 301.136 62.2367C300.979 62.2737 300.807 61.9618 301.172 60.412C301.565 58.7428 302.073 57.4664 302.278 57.0368C299.749 55.6766 294.783 52.4406 295.152 50.3785Z" fill="#D6B3B1"/>
<path d="M300.058 75.894C300.811 69.2515 302.68 64.6621 304.343 62.9907C304 63.2411 301.893 62.5845 300.883 62.2249C300.533 62.4965 299.455 62.7431 298.96 62.8325L297.66 63.2143C295.333 64.1853 293.536 69.517 292.928 72.0615L297.213 69.698L300.058 75.894Z" fill="#D6B3B1"/>
<path fill-rule="evenodd" clip-rule="evenodd" d="M306.049 55.491L306.739 56.3581C306.891 56.3138 307.082 56.2399 307.311 56.1308C307.673 55.9585 308.094 55.7162 308.544 55.4212C309.443 54.831 310.429 54.0478 311.252 53.2402C312.089 52.4198 312.707 51.6228 312.936 51.0083C313.049 50.7048 313.042 50.5132 312.997 50.3996C312.959 50.3033 312.857 50.1701 312.539 50.0653C312.044 49.902 311.482 49.9775 310.855 50.2775C310.226 50.5785 309.572 51.0873 308.935 51.7159C307.762 52.8734 306.712 54.3703 306.049 55.491ZM310.442 49.4155C311.206 49.05 312.032 48.8916 312.839 49.1578C313.336 49.3215 313.715 49.6111 313.887 50.05C314.053 50.4716 313.987 50.9274 313.832 51.3416C313.527 52.1626 312.779 53.0819 311.923 53.9222C311.053 54.7753 310.018 55.5972 309.069 56.22C308.595 56.5314 308.135 56.7976 307.723 56.9937C307.321 57.1847 306.926 57.3284 306.59 57.3593L306.333 57.3831L304.896 55.5788L305.055 55.2983C305.729 54.1073 306.908 52.3726 308.263 51.0359C308.939 50.3681 309.68 49.78 310.442 49.4155Z" fill="white"/>
<path fill-rule="evenodd" clip-rule="evenodd" d="M313.048 50.4626L313.93 50.1342C314.633 51.3134 315.578 53.2628 316.141 55.3029C316.696 57.3154 316.915 59.5496 315.994 61.1973C315.055 62.8779 313.334 63.4288 311.687 63.4787C310.071 63.5276 308.427 63.103 307.378 62.6889C307.334 62.6749 307.296 62.6571 307.264 62.6389L307.676 61.781C307.641 61.7691 307.596 61.76 307.543 61.7621C307.445 61.7659 307.36 61.8057 307.3 61.8602C307.251 61.905 307.232 61.947 307.226 61.9636C307.227 61.9564 307.23 61.9438 307.232 61.9245C307.251 61.7561 307.227 61.3488 307.033 60.5215C306.647 58.8828 306.15 57.6388 305.961 57.2424L305.765 56.8318L306.166 56.6162C307.413 55.9453 309.259 54.8127 310.739 53.6013C311.481 52.9943 312.112 52.383 312.531 51.8142C312.963 51.2283 313.104 50.7783 313.048 50.4626ZM307.223 61.9709C307.223 61.9708 307.224 61.9681 307.226 61.9636C307.224 61.9688 307.224 61.9711 307.223 61.9709ZM308.188 61.9669C309.137 62.2848 310.419 62.5609 311.658 62.5234C313.137 62.4786 314.452 61.9965 315.159 60.7314C315.884 59.4334 315.761 57.5253 315.218 55.5567C314.833 54.1592 314.255 52.7983 313.712 51.7269C313.597 51.9517 313.457 52.1709 313.302 52.3811C312.815 53.0415 312.115 53.7108 311.345 54.3406C309.951 55.4815 308.264 56.5433 307.005 57.246C307.264 57.8788 307.65 58.9708 307.964 60.3027C308.15 61.094 308.213 61.622 308.188 61.9669Z" fill="white"/>
<path fill-rule="evenodd" clip-rule="evenodd" d="M307.873 61.6869L308.08 61.8473C308.114 61.8732 308.196 61.9198 308.343 61.9778C308.481 62.0325 308.647 62.0867 308.826 62.1375C309.183 62.2391 309.56 62.3198 309.796 62.3623L309.821 62.3669L311.17 62.7633L311.194 62.7734C311.891 63.064 312.502 63.6574 313.029 64.3627C313.562 65.0751 314.04 65.9446 314.456 66.8482C315.288 68.6556 315.898 70.6557 316.207 71.9507L316.458 73.0027L311.677 70.3652L308.33 77.6543L308.137 75.9478C307.764 72.6568 307.115 69.8846 306.36 67.7367C305.599 65.5754 304.746 64.0888 303.988 63.3276L304.61 62.6049C304.573 62.5781 304.543 62.5677 304.531 62.5645C304.536 62.5654 304.546 62.5666 304.561 62.5674C304.613 62.5704 304.696 62.5672 304.813 62.553C305.044 62.5247 305.348 62.4606 305.689 62.3736C306.366 62.2006 307.13 61.9515 307.627 61.7748L307.873 61.6869ZM305.321 63.4379C306.004 64.3898 306.672 65.7412 307.262 67.4198C307.913 69.2687 308.48 71.5444 308.871 74.1837L311.238 69.0308L314.994 71.1032C314.665 69.9526 314.183 68.5442 313.586 67.2476C313.186 66.3788 312.741 65.5742 312.263 64.9344C311.787 64.2978 311.309 63.8644 310.848 63.665L309.6 63.2981C309.339 63.2502 308.944 63.165 308.564 63.0567C308.367 63.0007 308.168 62.9367 307.989 62.866C307.905 62.8324 307.817 62.7941 307.732 62.7506C307.227 62.9246 306.547 63.1409 305.926 63.2996C305.719 63.3525 305.514 63.4002 305.321 63.4379Z" fill="white"/>
<path fill-rule="evenodd" clip-rule="evenodd" d="M306.165 63.1621C307.215 63.066 308.296 62.1034 307.927 60.505L306.431 56.3555C306.39 56.2416 306.339 56.131 306.274 56.029C305.138 54.2526 303.509 54.0245 302.311 56.0382C302.255 56.1339 302.209 56.2372 302.173 56.3425L300.798 60.3309C300.758 60.4467 300.729 60.5664 300.715 60.6881C300.56 62.0861 300.992 62.8594 302.5 63.1621L304.347 63.4019L306.165 63.1621ZM304.346 62.438L306.059 62.2121L306.078 62.2104C306.356 62.1849 306.642 62.0404 306.825 61.8068C306.985 61.6041 307.111 61.279 307.006 60.7706L305.531 56.6793C305.508 56.6166 305.486 56.573 305.467 56.5434C304.977 55.7773 304.527 55.577 304.278 55.5673C304.074 55.5593 303.642 55.6722 303.134 56.5262C303.117 56.5547 303.097 56.5962 303.078 56.6536L301.703 60.6421C301.681 60.7052 301.67 60.7551 301.666 60.7932C301.599 61.4037 301.687 61.6697 301.774 61.7975C301.851 61.9095 302.048 62.0917 302.658 62.2188L304.346 62.438Z" fill="white"/>
<path fill-rule="evenodd" clip-rule="evenodd" d="M302.622 55.491L301.932 56.3581C301.78 56.3138 301.589 56.2399 301.36 56.1308C300.997 55.9585 300.577 55.7162 300.127 55.4212C299.228 54.831 298.242 54.0478 297.418 53.2402C296.582 52.4198 295.964 51.6228 295.735 51.0083C295.622 50.7048 295.629 50.5132 295.674 50.3996C295.712 50.3033 295.814 50.1701 296.132 50.0653C296.627 49.902 297.189 49.9775 297.816 50.2775C298.445 50.5785 299.099 51.0873 299.736 51.7159C300.909 52.8734 301.959 54.3703 302.622 55.491ZM298.229 49.4155C297.465 49.05 296.639 48.8916 295.832 49.1578C295.335 49.3215 294.956 49.6111 294.784 50.05C294.618 50.4716 294.684 50.9274 294.839 51.3416C295.144 52.1626 295.891 53.0819 296.748 53.9222C297.618 54.7753 298.653 55.5972 299.602 56.22C300.076 56.5314 300.536 56.7976 300.948 56.9937C301.35 57.1847 301.745 57.3284 302.081 57.3593L302.338 57.3831L303.775 55.5788L303.616 55.2983C302.942 54.1073 301.763 52.3726 300.408 51.0359C299.732 50.3681 298.991 49.78 298.229 49.4155Z" fill="white"/>
<path fill-rule="evenodd" clip-rule="evenodd" d="M295.623 50.4626L294.741 50.1342C294.038 51.3134 293.093 53.2628 292.531 55.3029C291.976 57.3154 291.756 59.5496 292.677 61.1973C293.616 62.8779 295.337 63.4288 296.984 63.4787C298.6 63.5276 300.244 63.103 301.294 62.6889C301.337 62.6749 301.375 62.6571 301.408 62.6389L300.995 61.781C301.03 61.7691 301.075 61.76 301.129 61.7621C301.226 61.7659 301.311 61.8057 301.371 61.8602C301.42 61.905 301.44 61.947 301.446 61.9636C301.444 61.9564 301.442 61.9438 301.44 61.9245C301.421 61.7561 301.444 61.3488 301.639 60.5215C302.025 58.8828 302.522 57.6388 302.711 57.2424L302.906 56.8318L302.505 56.6162C301.258 55.9453 299.413 54.8127 297.932 53.6013C297.19 52.9943 296.56 52.383 296.14 51.8142C295.708 51.2283 295.567 50.7783 295.623 50.4626ZM301.448 61.9709C301.448 61.9708 301.447 61.9681 301.446 61.9636C301.447 61.9688 301.448 61.9711 301.448 61.9709ZM300.483 61.9669C299.535 62.2848 298.252 62.5609 297.013 62.5234C295.534 62.4786 294.219 61.9965 293.512 60.7314C292.787 59.4334 292.91 57.5253 293.453 55.5567C293.838 54.1592 294.416 52.7983 294.959 51.7269C295.074 51.9517 295.215 52.1709 295.37 52.3811C295.857 53.0415 296.556 53.7108 297.326 54.3406C298.72 55.4815 300.408 56.5433 301.666 57.246C301.407 57.8788 301.021 58.9708 300.707 60.3027C300.521 61.094 300.458 61.622 300.483 61.9669Z" fill="white"/>
<path fill-rule="evenodd" clip-rule="evenodd" d="M300.798 61.6869L300.591 61.8473C300.557 61.8732 300.474 61.9198 300.328 61.9778C300.19 62.0325 300.024 62.0867 299.845 62.1375C299.488 62.2391 299.111 62.3198 298.875 62.3623L298.85 62.3669L297.501 62.7633L297.477 62.7734C296.78 63.064 296.169 63.6574 295.642 64.3627C295.109 65.0751 294.631 65.9446 294.215 66.8482C293.383 68.6556 292.773 70.6557 292.464 71.9507L292.212 73.0027L296.993 70.3652L300.341 77.6543L300.534 75.9478C300.907 72.6568 301.556 69.8846 302.311 67.7367C303.071 65.5754 303.925 64.0888 304.683 63.3276L304.061 62.6049C304.098 62.5781 304.128 62.5677 304.14 62.5645C304.135 62.5654 304.125 62.5666 304.11 62.5674C304.058 62.5704 303.975 62.5672 303.858 62.553C303.627 62.5247 303.322 62.4606 302.982 62.3736C302.305 62.2006 301.541 61.9515 301.044 61.7748L300.798 61.6869ZM303.35 63.4379C302.667 64.3898 301.999 65.7412 301.408 67.4198C300.758 69.2687 300.191 71.5444 299.8 74.1837L297.433 69.0308L293.677 71.1032C294.006 69.9526 294.487 68.5442 295.085 67.2476C295.485 66.3788 295.93 65.5742 296.408 64.9344C296.884 64.2978 297.362 63.8644 297.823 63.665L299.071 63.2981C299.332 63.2502 299.727 63.165 300.107 63.0567C300.304 63.0007 300.503 62.9367 300.681 62.866C300.766 62.8324 300.854 62.7941 300.939 62.7506C301.444 62.9246 302.124 63.1409 302.745 63.2996C302.952 63.3525 303.157 63.4002 303.35 63.4379Z" fill="white"/>
</svg>
