<?xml version="1.0" encoding="utf-8"?>
<!-- Generator: Adobe Illustrator 27.0.1, SVG Export Plug-In . SVG Version: 6.00 Build 0)  -->
<svg version="1.1" id="Слой_1" xmlns="http://www.w3.org/2000/svg" xmlns:xlink="http://www.w3.org/1999/xlink" x="0px" y="0px"
	 viewBox="0 0 50 50" style="enable-background:new 0 0 50 50;" xml:space="preserve">
<style type="text/css">
	.st0{fill:#FFFFFF;stroke:#AC6A75;stroke-miterlimit:10;}
	.st1{fill:none;stroke:#AC6A75;stroke-miterlimit:10;}
</style>
<path class="st0" d="M38.49,46.09H11.51c-1.1,0-2-0.9-2-2V6.39c0-1.1,0.9-2,2-2h26.98c1.1,0,2,0.9,2,2v37.7
	C40.49,45.19,39.59,46.09,38.49,46.09z"/>
<line class="st1" x1="14.13" y1="9.75" x2="35.87" y2="9.75"/>
<line class="st1" x1="22.01" y1="24.58" x2="35.87" y2="24.58"/>
<line class="st1" x1="14.13" y1="12.89" x2="35.87" y2="12.89"/>
<line class="st1" x1="22.01" y1="29.77" x2="35.87" y2="29.77"/>
<line class="st1" x1="22.01" y1="34.74" x2="35.87" y2="34.74"/>
<circle class="st1" cx="15.43" cy="24.58" r="1.3"/>
<circle class="st1" cx="15.43" cy="30.02" r="1.3"/>
<circle class="st1" cx="15.43" cy="35.25" r="1.3"/>
</svg>
