<svg width="21" height="20" viewBox="0 0 21 20" fill="none" xmlns="http://www.w3.org/2000/svg">
<g id="fluent:arrow-enter-16-filled">
<path id="Vector" d="M8.91162 1.875C8.66298 1.875 8.42452 1.97377 8.24871 2.14959C8.07289 2.3254 7.97412 2.56386 7.97412 2.8125C7.97412 3.06114 8.07289 3.2996 8.24871 3.47541C8.42452 3.65123 8.66298 3.75 8.91162 3.75H14.8491C15.3464 3.75 15.8233 3.94754 16.1749 4.29917C16.5266 4.65081 16.7241 5.12772 16.7241 5.625V14.375C16.7241 14.8723 16.5266 15.3492 16.1749 15.7008C15.8233 16.0525 15.3464 16.25 14.8491 16.25H8.91162C8.66298 16.25 8.42452 16.3488 8.24871 16.5246C8.07289 16.7004 7.97412 16.9389 7.97412 17.1875C7.97412 17.4361 8.07289 17.6746 8.24871 17.8504C8.42452 18.0262 8.66298 18.125 8.91162 18.125H14.8491C15.8437 18.125 16.7975 17.7299 17.5008 17.0267C18.204 16.3234 18.5991 15.3696 18.5991 14.375V5.625C18.5991 4.63044 18.204 3.67661 17.5008 2.97335C16.7975 2.27009 15.8437 1.875 14.8491 1.875H8.91162ZM12.6991 9.3375L9.57412 6.2125C9.3964 6.0469 9.16134 5.95675 8.91847 5.96103C8.67559 5.96532 8.44386 6.06371 8.27209 6.23547C8.10033 6.40724 8.00194 6.63897 7.99765 6.88185C7.99337 7.12472 8.08352 7.35978 8.24912 7.5375L9.77412 9.0625H2.66162C2.41298 9.0625 2.17452 9.16127 1.99871 9.33709C1.82289 9.5129 1.72412 9.75136 1.72412 10C1.72412 10.2486 1.82289 10.4871 1.99871 10.6629C2.17452 10.8387 2.41298 10.9375 2.66162 10.9375H9.77412L8.24912 12.4625C8.15701 12.5483 8.08313 12.6518 8.03189 12.7668C7.98065 12.8818 7.9531 13.006 7.95088 13.1318C7.94866 13.2577 7.97182 13.3828 8.01897 13.4995C8.06612 13.6162 8.1363 13.7223 8.22532 13.8113C8.31435 13.9003 8.42039 13.9705 8.53712 14.0177C8.65386 14.0648 8.7789 14.088 8.90477 14.0857C9.03065 14.0835 9.15479 14.056 9.26979 14.0047C9.38479 13.9535 9.48829 13.8796 9.57412 13.7875L12.6991 10.6625C12.8747 10.4867 12.9733 10.2484 12.9733 10C12.9733 9.75156 12.8747 9.51328 12.6991 9.3375Z" fill="white"/>
</g>
</svg>
