<svg width="33" height="32" viewBox="0 0 33 32" fill="none" xmlns="http://www.w3.org/2000/svg">
<g id="uit:telegram-alt">
<path id="Vector" d="M30.2341 3.68657C29.9466 3.44827 29.5999 3.29221 29.2309 3.23494C28.8619 3.17766 28.4843 3.2213 28.1381 3.36124L4.24874 13.0052C3.8627 13.1639 3.53404 13.4362 3.30638 13.786C3.07873 14.1358 2.96286 14.5466 2.97414 14.9638C2.98542 15.381 3.12333 15.7849 3.36956 16.1219C3.61579 16.4589 3.95869 16.713 4.35274 16.8506L9.5074 18.6399L12.3007 27.8746C12.3061 27.8932 12.3234 27.9052 12.3314 27.9226C12.3602 27.9962 12.4022 28.064 12.4554 28.1226C12.5362 28.2128 12.6406 28.2789 12.7567 28.3132C12.7701 28.3186 12.7794 28.3306 12.7927 28.3332H12.8007L12.8047 28.3346C12.9079 28.3568 13.0151 28.3513 13.1154 28.3186C13.1261 28.3159 13.1367 28.3159 13.1487 28.3119C13.2451 28.2781 13.3322 28.2224 13.4034 28.1492C13.4114 28.1399 13.4247 28.1386 13.4327 28.1306L17.4501 23.6959L23.3127 28.2359C23.6687 28.5146 24.1074 28.6652 24.5594 28.6652C25.5381 28.6652 26.3821 27.9799 26.5834 27.0239L30.9327 5.66657C31.0065 5.30401 30.9805 4.92821 30.8574 4.57927C30.7344 4.23034 30.5189 3.92134 30.2341 3.68524V3.68657ZM13.7581 20.3932L12.8154 24.9759L10.8487 18.4719L20.6021 13.3919L13.9394 20.0559C13.8471 20.1481 13.7841 20.2654 13.7581 20.3932ZM25.2767 26.7559C25.2517 26.8768 25.196 26.9892 25.115 27.0824C25.034 27.1756 24.9303 27.2463 24.8141 27.2879C24.7006 27.3316 24.5778 27.3449 24.4576 27.3267C24.3375 27.3085 24.2241 27.2592 24.1287 27.1839L17.7781 22.2652C17.6453 22.1628 17.4788 22.1141 17.3118 22.1289C17.1447 22.1437 16.9894 22.221 16.8767 22.3452L14.0807 25.4266L15.0221 20.8572L24.6074 11.2706C24.7197 11.158 24.788 11.0089 24.8 10.8504C24.812 10.6918 24.767 10.5342 24.673 10.4059C24.579 10.2776 24.4423 10.1872 24.2874 10.1509C24.1326 10.1146 23.9699 10.1348 23.8287 10.2079L10.0114 17.4052L4.78874 15.5892C4.65026 15.5435 4.52949 15.4558 4.44322 15.3382C4.35695 15.2206 4.30947 15.0791 4.3074 14.9332C4.30076 14.7861 4.34006 14.6406 4.41986 14.5168C4.49966 14.3931 4.616 14.2972 4.75274 14.2426L28.6381 4.59857C28.7605 4.54657 28.895 4.52975 29.0264 4.55001C29.1578 4.57027 29.281 4.6268 29.3821 4.71324C29.4826 4.79456 29.5585 4.90221 29.6013 5.02417C29.6442 5.14613 29.6523 5.27761 29.6247 5.40391L25.2767 26.7572V26.7559Z" fill="#AD6A75"/>
</g>
</svg>
