<svg width="32" height="33" viewBox="0 0 32 33" fill="none" xmlns="http://www.w3.org/2000/svg">
<g id="2674090_time_object_web_essential_icon 1" clip-path="url(#clip0_88_3395)">
<g id="16-Time">
<path id="Vector" d="M16 0.585449C12.8355 0.585449 9.74207 1.52383 7.11088 3.28194C4.4797 5.04004 2.42894 7.5389 1.21793 10.4625C0.00693258 13.3861 -0.309921 16.6032 0.307443 19.7069C0.924806 22.8106 2.44866 25.6615 4.6863 27.8992C6.92394 30.1368 9.77487 31.6606 12.8786 32.278C15.9823 32.8954 19.1993 32.5785 22.1229 31.3675C25.0466 30.1565 27.5454 28.1058 29.3035 25.4746C31.0616 22.8434 32 19.7499 32 16.5854C32 12.342 30.3143 8.27232 27.3137 5.27174C24.3131 2.27116 20.2435 0.585449 16 0.585449ZM16 31.2521C13.0992 31.2521 10.2636 30.3919 7.85164 28.7803C5.43972 27.1687 3.55986 24.8781 2.44977 22.1981C1.33969 19.5182 1.04924 16.5692 1.61516 13.7241C2.18107 10.8791 3.57794 8.26572 5.62911 6.21455C7.68028 4.16338 10.2936 2.76651 13.1387 2.2006C15.9837 1.63468 18.9327 1.92513 21.6127 3.03522C24.2927 4.1453 26.5833 6.02517 28.1949 8.43709C29.8065 10.849 30.6667 13.6847 30.6667 16.5854C30.6667 20.4753 29.1214 24.2058 26.3709 26.9563C23.6204 29.7069 19.8899 31.2521 16 31.2521Z" fill="#6B6B6B"/>
<path id="Vector_2" d="M16 4.58545C13.6266 4.58545 11.3066 5.28924 9.33316 6.60781C7.35977 7.92639 5.8217 9.80053 4.91345 11.9932C4.0052 14.186 3.76756 16.5988 4.23058 18.9265C4.6936 21.2543 5.83649 23.3925 7.51472 25.0707C9.19295 26.749 11.3312 27.8919 13.6589 28.3549C15.9867 28.8179 18.3995 28.5803 20.5922 27.672C22.7849 26.7638 24.6591 25.2257 25.9776 23.2523C27.2962 21.2789 28 18.9588 28 16.5854C28 13.4029 26.7357 10.3506 24.4853 8.10017C22.2348 5.84973 19.1826 4.58545 16 4.58545ZM16.6667 27.2188V23.9188H15.3333V27.2188C12.7441 27.0538 10.3038 25.9507 8.46927 24.1162C6.63471 22.2816 5.53168 19.8413 5.36667 17.2521H9.33334V15.9188H5.36667C5.53168 13.3296 6.63471 10.8893 8.46927 9.05472C10.3038 7.22016 12.7441 6.11712 15.3333 5.95212V9.25212H16.6667V5.95212C19.2559 6.11712 21.6962 7.22016 23.5307 9.05472C25.3653 10.8893 26.4683 13.3296 26.6333 15.9188H22.6667V17.2521H26.6333C26.4683 19.8413 25.3653 22.2816 23.5307 24.1162C21.6962 25.9507 19.2559 27.0538 16.6667 27.2188Z" fill="#6B6B6B"/>
<path id="Vector_3" d="M16.2987 11.5854H15V16.1806C14.9995 16.267 15.0159 16.3527 15.0482 16.4327C15.0805 16.5126 15.1281 16.5854 15.1883 16.6467L19.0844 20.5854L20 19.6598L16.2987 15.9115V11.5854Z" fill="#6B6B6B"/>
</g>
</g>
<defs>
<clipPath id="clip0_88_3395">
<rect width="32" height="32" fill="white" transform="translate(0 0.585449)"/>
</clipPath>
</defs>
</svg>
