<svg width="32" height="33" viewBox="0 0 32 33" fill="none" xmlns="http://www.w3.org/2000/svg">
<g id="290143_cash_money_payment_wallet_icon 1">
<path id="Vector" fill-rule="evenodd" clip-rule="evenodd" d="M32 27.2923C32 29.1114 30.4918 30.5854 28.6304 30.5854H4.36957C2.50822 30.5854 1 29.1114 1 27.2923V8.19192C1 6.737 2.20698 5.55739 3.69565 5.55739H17.2892L22.7472 3.62496C23.0929 3.5018 23.4757 3.67633 23.6017 4.0129L24.1765 5.55739H26.6087C28.0974 5.55739 29.3043 6.737 29.3043 8.19192V9.50919C30.793 9.50919 32 10.6888 32 12.1437V27.2923ZM3.69565 6.87466C2.95165 6.87466 2.34783 7.46479 2.34783 8.19192C2.34783 8.91905 2.95165 9.50919 3.69565 9.50919H6.01728H6.14465C6.15341 9.5059 6.1588 9.49865 6.16757 9.49536L13.5685 6.87466H3.69565ZM23.2917 6.99387L22.576 5.06803L21.1931 5.55739H21.1952L17.4792 6.87466H17.4725L10.0331 9.50919H24.2271L23.2917 6.99387ZM27.9565 8.19192C27.9565 7.46479 27.3527 6.87466 26.6087 6.87466H24.6658L25.6457 9.50919H27.9565V8.19192ZM29.3043 10.8265H3.69565C3.20235 10.8265 2.74543 10.6875 2.34783 10.4609V27.2923C2.34783 28.3836 3.25357 29.2682 4.36957 29.2682H28.6304C29.7471 29.2682 30.6522 28.3836 30.6522 27.2923V22.6819H27.9565C26.4678 22.6819 25.2609 21.5022 25.2609 20.0473C25.2609 18.5924 26.4678 17.4128 27.9565 17.4128H30.6522V12.1437C30.6522 11.4166 30.0483 10.8265 29.3043 10.8265ZM30.6522 21.3646V18.7301H27.9565C27.2125 18.7301 26.6087 19.3202 26.6087 20.0473C26.6087 20.7745 27.2125 21.3646 27.9565 21.3646H30.6522ZM27.9565 19.3887H29.3043V20.706H27.9565V19.3887Z" fill="#6B6B6B"/>
</g>
</svg>
