<svg width="33" height="32" viewBox="0 0 33 32" fill="none" xmlns="http://www.w3.org/2000/svg">
<g id="ph:whatsapp-logo-thin">
<path id="Vector" d="M24.1978 18.5525L20.1978 16.5525C20.119 16.5133 20.0313 16.4955 19.9436 16.501C19.8558 16.5065 19.771 16.535 19.6978 16.5838L17.6178 17.9713C16.4744 17.4229 15.5523 16.5009 15.004 15.3575L16.3915 13.2775C16.4402 13.2043 16.4688 13.1195 16.4743 13.0317C16.4798 12.9439 16.462 12.8562 16.4228 12.7775L14.4228 8.7775C14.3813 8.69401 14.3173 8.62378 14.238 8.57474C14.1587 8.52571 14.0672 8.49982 13.974 8.5C12.7805 8.5 11.6359 8.97411 10.792 9.81802C9.94811 10.6619 9.474 11.8065 9.474 13C9.47698 15.7839 10.5842 18.4528 12.5527 20.4213C14.5212 22.3898 17.1901 23.497 19.974 23.5C21.1675 23.5 22.3121 23.0259 23.156 22.182C23.9999 21.3381 24.474 20.1935 24.474 19C24.4741 18.9071 24.4483 18.816 24.3995 18.737C24.3507 18.658 24.2808 18.5941 24.1978 18.5525ZM19.974 22.5C17.4553 22.4974 15.0404 21.4956 13.2594 19.7146C11.4784 17.9336 10.4766 15.5187 10.474 13C10.4739 12.124 10.8022 11.2798 11.3942 10.6341C11.9862 9.98843 12.7988 9.58821 13.6715 9.5125L15.3965 12.9638L14.0215 15.0313C13.9757 15.0995 13.9474 15.1779 13.9391 15.2597C13.9308 15.3414 13.9428 15.424 13.974 15.5C14.6383 17.0793 15.8947 18.3357 17.474 19C17.5501 19.0316 17.6328 19.0439 17.7148 19.0359C17.7968 19.0278 17.8755 18.9996 17.944 18.9538L20.0115 17.5788L23.4628 19.3038C23.3867 20.1765 22.9862 20.9889 22.3403 21.5807C21.6944 22.1725 20.85 22.5005 19.974 22.5ZM16.974 3.5C14.7979 3.4996 12.6593 4.06731 10.7699 5.14699C8.88048 6.22667 7.30566 7.7809 6.20121 9.65594C5.09677 11.531 4.50096 13.6619 4.47273 15.8378C4.4445 18.0138 4.98482 20.1594 6.04025 22.0625L4.55275 26.5238C4.46461 26.788 4.45182 27.0717 4.51581 27.3428C4.5798 27.614 4.71805 27.862 4.91505 28.059C5.11205 28.256 5.36003 28.3942 5.63118 28.4582C5.90234 28.5222 6.18596 28.5094 6.45025 28.4213L10.9115 26.9338C12.5803 27.8584 14.4387 28.3888 16.3441 28.4843C18.2496 28.5798 20.1517 28.2379 21.9046 27.4847C23.6575 26.7315 25.2147 25.5871 26.457 24.139C27.6992 22.691 28.5935 20.9778 29.0714 19.1308C29.5492 17.2837 29.5979 15.3518 29.2138 13.483C28.8296 11.6142 28.0228 9.85814 26.855 8.34936C25.6873 6.84058 24.1897 5.61912 22.477 4.77856C20.7643 3.938 18.8819 3.50064 16.974 3.5ZM16.974 27.5C14.9521 27.5006 12.9657 26.9681 11.2153 25.9563C11.1392 25.9125 11.053 25.8892 10.9653 25.8888C10.9113 25.8887 10.8576 25.8976 10.8065 25.915L6.134 27.4725C6.0459 27.5019 5.95137 27.5061 5.86098 27.4848C5.7706 27.4635 5.68794 27.4174 5.62227 27.3517C5.5566 27.2861 5.51052 27.2034 5.48919 27.113C5.46786 27.0226 5.47212 26.9281 5.5015 26.84L7.059 22.1675C7.08147 22.1003 7.08941 22.0292 7.0823 21.9587C7.07519 21.8882 7.05319 21.8201 7.01775 21.7588C5.74988 19.5672 5.2407 17.0185 5.56919 14.508C5.89768 11.9975 7.04549 9.66557 8.83455 7.87399C10.6236 6.08242 12.9539 4.93133 15.4639 4.59931C17.974 4.26729 20.5234 4.77289 22.7167 6.03768C24.9101 7.30247 26.6247 9.25574 27.5947 11.5945C28.5646 13.9332 28.7356 16.5267 28.0812 18.9725C27.4267 21.4184 25.9834 23.5799 23.9751 25.1217C21.9669 26.6636 19.5059 27.4996 16.974 27.5Z" fill="#AD6A75"/>
</g>
</svg>
